<svg width="395" height="340" viewBox="0 0 395 340" fill="none" xmlns="http://www.w3.org/2000/svg">
<path d="M188.562 44.001C196.682 35.9006 196.682 22.7674 188.562 14.667C180.441 6.56664 167.275 6.56665 159.154 14.667C151.034 22.7674 151.034 35.9006 159.154 44.001C167.275 52.1013 180.441 52.1013 188.562 44.001Z" fill="#FBD931"/>
<path d="M328.199 191.971C326.111 202.142 322.391 211.885 317.333 220.989C283.505 281.935 190.8 314.877 143.805 264.876C137.061 257.695 131.254 250.247 126.329 242.612C110.218 217.572 103.769 190.609 105.776 165.061C107.408 144.292 114.634 124.484 126.784 107.426C131.601 100.645 137.222 94.2915 143.591 88.4985C231.104 8.57199 344.176 113.699 328.199 191.971Z" fill="#EF7136"/>
<path d="M317.333 220.989C283.505 281.935 190.8 314.877 143.805 264.876C137.061 257.695 131.254 250.247 126.329 242.612C126.222 241.011 126.142 239.356 126.062 237.647C125.205 221.603 125.152 213.221 142.547 212.019C146.803 211.726 153.466 211.165 161.522 210.471C162.967 208.122 167.784 200.113 171.638 191.837C167.811 191.357 127.4 186.018 113.911 174.272C111.182 171.896 108.425 168.692 105.776 165.035C94.6425 149.765 84.901 126.674 83.5361 123.176C82.0909 119.492 81.9571 116.583 82.7867 111.137C82.1712 111.858 76.6849 104.676 77.4878 102.14C78.8259 98.0025 91.886 89.3265 99.1654 88.4722C100.45 88.3121 104.09 94.6389 103.26 94.7991C107.81 95.3864 116.882 97.5754 118.943 99.9513C119.853 100.992 123.091 103.876 126.757 107.426C132.699 113.139 139.737 120.587 139.844 124.751C140.032 131.505 141.049 131.425 143.136 131.612C145.25 131.799 146.99 132.814 146.803 135.27C146.615 137.752 146.99 139.674 151.218 139.007C155.447 138.366 158.284 139.087 159.113 142.584C159.943 146.055 171.504 146.161 175.893 146.241C180.282 146.321 202.602 148.057 205.225 149.632C206.804 134.629 212.826 110.87 212.826 110.87C212.826 110.87 194.467 104.783 194.734 101.847C194.895 100.192 209.587 94.5054 219.168 90.9816C219.302 90.9282 225.083 91.6223 228.187 90.3409C228.187 90.3409 223.076 104.276 239.481 109.935C239.481 109.935 239.695 112.658 240.873 112.819C241.676 112.925 242.88 112.285 243.415 109.749C243.656 108.601 243.763 107.052 243.656 105.023C243.656 105.023 243.763 105.023 243.977 105.023H244.004C246.707 105.05 249.249 105.317 251.364 105.771C254.307 106.412 256.368 107.479 256.796 108.894C257.465 111.057 255.833 113.593 249.276 114.58C246.814 122.029 247.189 128.542 249.544 128.889C252.14 129.29 253.13 128.435 254.388 127.528C255.646 126.62 256.636 131.239 251.364 134.736C247.242 137.459 242.077 138.5 238.036 135.83C237.019 143.065 235.922 151.207 235.092 158.628C236.965 158.655 264.477 176.14 271.917 180.065C276.734 182.627 286.369 188.501 293.675 196.91C309.572 196.029 314.202 197.23 315.915 209.59C316.316 211.939 316.798 215.944 317.333 220.989Z" fill="white"/>
<path d="M217.509 104.115C216.947 103.875 216.706 103.208 216.947 102.674L218.098 100.111C218.339 99.5505 219.008 99.3103 219.543 99.5505C220.105 99.7908 220.346 100.458 220.105 100.992L218.954 103.555C218.74 104.115 218.071 104.382 217.509 104.115Z" fill="#202D37"/>
<path d="M224.253 107.159C223.691 106.918 223.451 106.251 223.691 105.717L224.842 103.154C225.083 102.594 225.752 102.353 226.287 102.594C226.849 102.834 227.09 103.501 226.849 104.035L225.699 106.598C225.458 107.159 224.815 107.399 224.253 107.159Z" fill="#202D37"/>
<path d="M177.58 34.9751C177.151 36.0696 176.536 36.8705 175.787 37.3777C175.037 37.8849 174.074 38.0718 172.923 37.965L171.772 40.8482C171.745 40.9282 171.692 40.9816 171.612 41.035C171.531 41.0617 171.451 41.0617 171.371 41.035L167.57 39.5134C167.49 39.4867 167.437 39.4333 167.383 39.3532C167.356 39.2731 167.356 39.193 167.383 39.1129L168.4 36.5502C167.704 36.2298 167.062 35.9362 166.527 35.6158C166.446 35.5891 166.42 35.509 166.393 35.429C166.366 35.3489 166.366 35.2688 166.393 35.1887L167.918 32.2522C167.972 32.1721 168.025 32.1187 168.132 32.092C168.239 32.0653 168.32 32.092 168.4 32.1454C168.614 32.2789 168.828 32.4391 169.069 32.5725C169.31 32.706 169.604 32.8929 169.979 33.0798C170.354 33.2933 170.702 33.4535 171.05 33.587C171.424 33.7471 171.745 33.8272 172.04 33.8272C172.334 33.8272 172.575 33.7738 172.736 33.667C172.896 33.5603 173.03 33.4535 173.11 33.3467C173.191 33.2399 173.271 33.1331 173.298 33.0531C173.351 32.9463 173.351 32.8128 173.378 32.6793C173.378 32.5458 173.378 32.359 173.324 32.1187C173.271 31.8784 173.137 31.6115 172.923 31.3178C172.682 31.0242 172.388 30.7305 171.986 30.4636C171.531 30.1432 171.157 29.7695 170.809 29.3157C170.461 28.8618 170.193 28.3546 169.952 27.794C169.738 27.2334 169.631 26.5927 169.631 25.8986C169.631 25.2046 169.792 24.4838 170.059 23.763C170.461 22.7486 171.05 22.0011 171.852 21.5206C172.629 21.04 173.592 20.8265 174.689 20.8799L175.867 17.9167C175.894 17.8366 175.947 17.7832 176.054 17.7298C176.134 17.7031 176.215 17.6764 176.295 17.7298L180.095 19.2514C180.176 19.2781 180.229 19.3582 180.283 19.4383C180.309 19.5184 180.309 19.6252 180.283 19.7053L179.266 22.268C179.935 22.5617 180.577 22.882 181.219 23.2291C181.3 23.2558 181.326 23.3359 181.38 23.416C181.407 23.496 181.407 23.5761 181.353 23.6562L179.828 26.5927C179.774 26.6728 179.721 26.7262 179.614 26.7529C179.506 26.7796 179.426 26.7796 179.346 26.7262C178.382 26.0855 177.473 25.5783 176.616 25.2312C176.268 25.0711 175.947 24.991 175.653 24.991C175.358 24.991 175.117 25.0444 174.957 25.1512C174.796 25.2579 174.662 25.3647 174.555 25.4715C174.475 25.5783 174.395 25.6851 174.368 25.7652C174.341 25.8719 174.315 25.9787 174.288 26.1122C174.288 26.2457 174.288 26.4326 174.341 26.6728C174.395 26.9131 174.529 27.18 174.77 27.4737C175.01 27.7673 175.305 28.061 175.706 28.3279C176.134 28.6483 176.536 29.022 176.884 29.4759C177.232 29.9297 177.526 30.4369 177.74 30.9975C177.954 31.5581 178.061 32.1988 178.061 32.8929C178.008 33.5603 177.847 34.2544 177.58 34.9751Z" fill="#202D37"/>
<path d="M171.478 41.4356C171.397 41.4356 171.29 41.4089 171.21 41.3822L167.41 39.8606C167.222 39.7805 167.089 39.647 167.008 39.4869C166.928 39.3 166.928 39.1131 167.008 38.9262L167.892 36.7105C167.33 36.4436 166.794 36.1766 166.339 35.9363C166.179 35.8563 166.072 35.6961 166.018 35.5359C165.965 35.3757 165.965 35.1889 166.045 35.002C166.045 35.002 166.045 34.9753 166.072 34.9753L167.597 32.0388C167.704 31.8519 167.865 31.7184 168.079 31.665C168.293 31.6117 168.48 31.665 168.668 31.7718C168.882 31.9053 169.096 32.0655 169.31 32.199C169.524 32.3324 169.818 32.4926 170.193 32.7062C170.541 32.893 170.889 33.0532 171.21 33.1867C171.531 33.3202 171.826 33.4003 172.066 33.4003C172.334 33.4003 172.468 33.3469 172.521 33.2935C172.655 33.2134 172.762 33.1066 172.816 33.0532C172.896 32.9731 172.923 32.893 172.95 32.8663C172.976 32.813 173.003 32.7329 173.003 32.6261C173.003 32.546 173.003 32.4125 172.95 32.1456C172.923 32.0388 172.843 31.8252 172.602 31.5049C172.388 31.2379 172.12 30.971 171.772 30.7307C171.29 30.4104 170.862 29.9832 170.487 29.5027C170.113 29.0222 169.818 28.4883 169.578 27.8743C169.337 27.2603 169.203 26.5662 169.23 25.8187C169.23 25.0712 169.39 24.2971 169.711 23.5496C170.14 22.4551 170.809 21.6542 171.665 21.1203C172.441 20.6398 173.378 20.3995 174.448 20.3995L175.519 17.7033C175.599 17.5164 175.706 17.3829 175.893 17.3028C176.081 17.2227 176.268 17.1961 176.456 17.2761L180.256 18.7978C180.443 18.8779 180.577 19.0114 180.657 19.1982C180.738 19.3851 180.738 19.572 180.657 19.7588L179.774 21.9746C180.336 22.2415 180.871 22.5085 181.407 22.7754C181.567 22.8555 181.674 23.0157 181.754 23.1759C181.835 23.3627 181.808 23.5763 181.701 23.7632L180.175 26.6997C180.068 26.8865 179.908 26.9933 179.721 27.0734C179.506 27.1268 179.292 27.1001 179.105 26.9666C178.168 26.3526 177.285 25.8454 176.456 25.4984C176.134 25.3649 175.867 25.2848 175.626 25.2848C175.412 25.2848 175.251 25.3115 175.144 25.3916C174.957 25.4984 174.877 25.5785 174.823 25.6318C174.769 25.6852 174.716 25.7653 174.689 25.8187C174.662 25.8454 174.662 25.9255 174.636 26.059C174.636 26.1391 174.636 26.2725 174.689 26.5128C174.716 26.6997 174.85 26.9132 175.037 27.1535C175.251 27.4205 175.519 27.6874 175.867 27.9277C176.322 28.2747 176.75 28.6751 177.125 29.1557C177.499 29.6362 177.794 30.1701 178.034 30.7841C178.275 31.3981 178.382 32.0922 178.382 32.8396C178.382 33.5871 178.222 34.3346 177.901 35.1088C177.419 36.2834 176.777 37.1376 175.974 37.6982C175.224 38.2055 174.261 38.419 173.137 38.3656L172.093 40.9818C172.013 41.1687 171.879 41.3021 171.719 41.3822C171.665 41.4089 171.558 41.4356 171.478 41.4356ZM167.758 39.1398L171.424 40.6081L172.548 37.805C172.602 37.6449 172.789 37.5381 172.95 37.5648C174.02 37.6716 174.903 37.4847 175.572 37.0576C176.241 36.6037 176.803 35.8562 177.205 34.8418C177.472 34.1744 177.606 33.507 177.633 32.8663C177.633 32.2257 177.553 31.6383 177.339 31.1044C177.125 30.5705 176.857 30.09 176.536 29.6896C176.215 29.2624 175.84 28.9154 175.439 28.6218C175.037 28.3281 174.689 28.0078 174.422 27.6874C174.154 27.3404 173.993 27.02 173.94 26.7264C173.886 26.4594 173.86 26.2192 173.86 26.059C173.86 25.8721 173.913 25.7119 173.967 25.5785C174.02 25.4183 174.127 25.2848 174.234 25.1513C174.341 25.0179 174.502 24.9111 174.716 24.7776C174.957 24.6174 175.278 24.5373 175.653 24.5373C176.001 24.5373 176.375 24.6174 176.777 24.8043C177.633 25.1513 178.543 25.6585 179.506 26.2992L180.952 23.4962C180.363 23.1759 179.721 22.8822 179.078 22.5886C178.891 22.5085 178.784 22.2682 178.864 22.0813L179.854 19.572L176.161 18.1037L175.01 21.0135C174.957 21.1737 174.796 21.2805 174.609 21.2538C173.592 21.2004 172.709 21.414 172.013 21.8411C171.29 22.2682 170.755 22.9623 170.38 23.8699C170.113 24.5373 169.979 25.2047 169.979 25.8454C169.979 26.4861 170.059 27.0734 170.273 27.6073C170.487 28.1412 170.755 28.6218 171.076 29.0489C171.397 29.476 171.772 29.8231 172.174 30.1167C172.602 30.4104 172.95 30.7307 173.19 31.0511C173.458 31.3981 173.619 31.7184 173.672 32.0121C173.726 32.279 173.752 32.4926 173.726 32.6795C173.726 32.8664 173.672 33.0265 173.619 33.1867C173.565 33.3202 173.485 33.4537 173.351 33.5871C173.244 33.7206 173.083 33.8541 172.896 33.9876C172.655 34.1477 172.334 34.2278 171.986 34.2278C171.638 34.2278 171.264 34.121 170.835 33.9609C170.487 33.8274 170.113 33.6405 169.738 33.427C169.363 33.2134 169.042 33.0532 168.801 32.893C168.587 32.7596 168.373 32.6261 168.186 32.4926L166.741 35.2956C167.249 35.5893 167.865 35.8829 168.534 36.1766C168.721 36.2567 168.828 36.4969 168.748 36.6838L167.758 39.1398Z" fill="#202D37"/>
<path d="M338.583 92.2082C338.904 92.7154 339.038 93.1959 339.011 93.6498C338.984 94.1036 338.77 94.5574 338.395 94.9845L339.225 96.3193C339.252 96.346 339.252 96.3994 339.252 96.4528C339.252 96.5062 339.225 96.5329 339.172 96.5596L337.405 97.6541C337.378 97.6808 337.325 97.6808 337.271 97.6808C337.218 97.6808 337.191 97.6541 337.164 97.6007L336.442 96.4261C336.094 96.613 335.799 96.7732 335.505 96.9066C335.478 96.9333 335.425 96.9333 335.398 96.9066C335.345 96.8799 335.318 96.8532 335.291 96.8265L334.568 95.3316C334.542 95.2782 334.542 95.2515 334.568 95.1981C334.595 95.1447 334.622 95.118 334.675 95.118C334.809 95.0646 334.916 95.0379 335.05 94.9845C335.184 94.9312 335.345 94.8511 335.532 94.771C335.719 94.6909 335.907 94.5841 336.067 94.504C336.228 94.3972 336.361 94.2905 336.469 94.1837C336.549 94.0769 336.602 93.9434 336.602 93.8633C336.602 93.7566 336.602 93.6765 336.576 93.6231C336.549 93.543 336.549 93.4896 336.522 93.4629C336.495 93.4095 336.442 93.3561 336.388 93.3294C336.335 93.276 336.254 93.2226 336.147 93.1693C336.04 93.1159 335.88 93.0892 335.692 93.0892C335.505 93.0892 335.291 93.1426 335.077 93.196C334.809 93.276 334.542 93.3294 334.247 93.3294C333.953 93.3294 333.658 93.3027 333.364 93.2226C333.07 93.1426 332.775 93.0091 332.508 92.7688C332.213 92.5553 331.972 92.2883 331.785 91.9413C331.491 91.4874 331.384 91.0069 331.41 90.5531C331.464 90.0993 331.651 89.6454 331.999 89.2183L331.17 87.8568C331.143 87.8301 331.143 87.7768 331.143 87.7234C331.143 87.67 331.17 87.6433 331.223 87.6166L332.989 86.5221C333.016 86.4954 333.07 86.4954 333.123 86.4954C333.177 86.4954 333.204 86.5221 333.23 86.5754L333.953 87.7501C334.274 87.5632 334.595 87.403 334.916 87.2428C334.943 87.2161 334.997 87.2161 335.05 87.2428C335.104 87.2428 335.13 87.2695 335.157 87.3229L335.88 88.8179C335.907 88.8713 335.907 88.898 335.88 88.9514C335.853 89.0047 335.826 89.0314 335.799 89.0314C335.237 89.2183 334.756 89.4319 334.354 89.6721C334.194 89.7789 334.06 89.8857 333.98 89.9925C333.899 90.0993 333.846 90.2327 333.846 90.3395C333.846 90.4463 333.846 90.5264 333.846 90.5798C333.873 90.6332 333.873 90.7133 333.899 90.74C333.926 90.7934 333.98 90.82 334.033 90.8734C334.087 90.9268 334.167 90.9802 334.274 91.0069C334.381 91.0603 334.542 91.087 334.729 91.087C334.916 91.087 335.13 91.0336 335.345 90.9802C335.612 90.9001 335.88 90.8467 336.174 90.8467C336.469 90.8467 336.763 90.8734 337.057 90.9535C337.352 91.0336 337.646 91.1938 337.914 91.4074C338.155 91.6209 338.395 91.8879 338.583 92.2082Z" fill="#202D37"/>
<path d="M337.325 98.0282C337.271 98.0282 337.244 98.0282 337.191 98.0015C337.057 97.9748 336.923 97.868 336.843 97.7345L336.308 96.8802C336.094 96.987 335.879 97.0938 335.665 97.2006C335.532 97.254 335.398 97.254 335.264 97.2273C335.13 97.1739 335.023 97.0938 334.943 96.987C334.943 96.987 334.943 96.9603 334.916 96.9603L334.193 95.4654C334.113 95.3052 334.113 95.145 334.167 95.0116C334.22 94.8514 334.354 94.7446 334.515 94.6912C334.622 94.6645 334.755 94.6111 334.862 94.5577C334.996 94.5043 335.13 94.4509 335.317 94.3442C335.505 94.2641 335.665 94.184 335.799 94.0772C335.933 93.9971 336.04 93.917 336.094 93.8369C336.147 93.7569 336.147 93.7302 336.147 93.7302C336.147 93.6501 336.147 93.5967 336.147 93.5967C336.147 93.57 336.12 93.5433 336.12 93.5433C336.12 93.5433 336.12 93.5166 336.067 93.4899C336.067 93.4899 336.013 93.4365 335.906 93.3831C335.879 93.3831 335.826 93.3564 335.639 93.3564C335.478 93.3564 335.317 93.3831 335.13 93.4632C334.836 93.57 334.515 93.6234 334.193 93.6234C333.872 93.6234 333.551 93.57 333.203 93.4899C332.855 93.4098 332.507 93.2229 332.186 92.9827C331.865 92.7424 331.597 92.4221 331.357 92.0483C331.035 91.5144 330.875 90.9538 330.928 90.4199C330.982 89.9661 331.143 89.5123 331.437 89.0851L330.741 87.9639C330.661 87.8304 330.634 87.697 330.661 87.5635C330.688 87.4033 330.795 87.2698 330.928 87.1898L332.695 86.0952C332.829 86.0151 332.989 85.9884 333.123 86.0151C333.284 86.0418 333.391 86.1486 333.471 86.2554L334.006 87.1097C334.22 87.0029 334.434 86.8961 334.675 86.7893C334.809 86.7359 334.943 86.7359 335.077 86.7626C335.237 86.816 335.371 86.9228 335.425 87.0563L336.147 88.5512C336.227 88.6847 336.227 88.8449 336.174 89.005C336.12 89.1652 335.987 89.2987 335.826 89.3521C335.317 89.539 334.863 89.7525 334.488 89.9661C334.354 90.0462 334.274 90.0996 334.22 90.1796C334.167 90.233 334.167 90.2864 334.167 90.2864C334.167 90.3932 334.167 90.4199 334.167 90.4466C334.167 90.4733 334.167 90.4733 334.193 90.5C334.193 90.5 334.193 90.5267 334.22 90.5267C334.22 90.5267 334.274 90.5534 334.381 90.6068C334.408 90.6068 334.488 90.6335 334.648 90.6335C334.809 90.6335 334.97 90.6068 335.157 90.5267C335.451 90.4466 335.772 90.3932 336.094 90.3665C336.415 90.3665 336.763 90.3932 337.084 90.5C337.432 90.6068 337.78 90.767 338.101 91.0072C338.422 91.2475 338.69 91.5678 338.93 91.9416C339.278 92.5289 339.439 93.0895 339.412 93.6234C339.385 94.0772 339.198 94.531 338.877 94.9582L339.546 96.0527C339.626 96.1862 339.653 96.3196 339.626 96.4798C339.599 96.64 339.492 96.7468 339.385 96.8269L337.619 97.9214C337.512 98.0015 337.432 98.0282 337.325 98.0282ZM336.441 95.9726C336.575 95.9726 336.709 96.0527 336.789 96.1595L337.405 97.1472L338.77 96.3196L338.074 95.1984C337.994 95.0383 337.994 94.8514 338.128 94.7179C338.449 94.3442 338.636 93.9971 338.663 93.6234C338.69 93.2496 338.556 92.8492 338.288 92.4221C338.101 92.1284 337.913 91.8882 337.673 91.7013C337.432 91.5144 337.191 91.381 336.95 91.3276C336.682 91.2475 336.441 91.2208 336.201 91.2208C335.96 91.2208 335.719 91.2742 335.478 91.3276C335.21 91.4077 334.97 91.461 334.729 91.461C334.488 91.461 334.274 91.4343 334.113 91.3543C333.979 91.2742 333.846 91.2208 333.765 91.1407C333.685 91.0606 333.605 90.9805 333.551 90.9004C333.498 90.8203 333.444 90.7136 333.444 90.6068C333.417 90.5 333.417 90.3932 333.417 90.2597C333.417 90.0729 333.498 89.886 333.631 89.6991C333.765 89.539 333.926 89.4055 334.14 89.272C334.488 89.0584 334.916 88.8716 335.398 88.6847L334.889 87.6436C334.648 87.7503 334.381 87.8838 334.14 88.0173C333.953 88.1241 333.712 88.0707 333.605 87.8838L332.989 86.8961L331.624 87.7237L332.347 88.8983C332.427 89.0317 332.427 89.2186 332.32 89.3521C332.026 89.7258 331.865 90.0996 331.812 90.4733C331.785 90.847 331.865 91.2208 332.133 91.6212C332.32 91.9149 332.534 92.1551 332.775 92.342C333.016 92.5289 333.257 92.6623 333.498 92.7157C333.765 92.7958 334.006 92.8225 334.274 92.8225C334.515 92.8225 334.755 92.7958 334.97 92.7157C335.237 92.6356 335.478 92.5822 335.719 92.5822C335.96 92.5822 336.174 92.6089 336.334 92.689C336.468 92.7691 336.575 92.8225 336.656 92.9026C336.736 92.9827 336.816 93.0628 336.87 93.1429C336.923 93.223 336.95 93.3297 336.977 93.4365C337.004 93.5433 337.004 93.6501 337.004 93.7835C337.004 93.9704 336.923 94.1573 336.789 94.3442C336.656 94.5043 336.495 94.6378 336.281 94.7713C336.12 94.8781 335.933 94.9582 335.719 95.0649C335.505 95.145 335.344 95.2251 335.21 95.2785C335.157 95.3052 335.103 95.3052 335.077 95.3319L335.585 96.3997C335.799 96.2929 336.04 96.1595 336.281 96.026C336.308 95.9993 336.388 95.9726 336.441 95.9726ZM335.612 88.6046C335.612 88.6313 335.612 88.6313 335.612 88.6046C335.612 88.6313 335.612 88.6313 335.612 88.6046Z" fill="#202D37"/>
<path d="M334.782 105.583C330.687 105.583 325.495 102.807 321.695 91.1411C318.537 81.3972 307.243 60.9751 292.577 59.934C292.176 59.9073 291.828 59.6136 291.721 59.2132C291.614 58.8128 291.801 58.4123 292.149 58.1988C293.086 57.6115 315.004 44.1035 320.678 42.6086C323.729 41.8077 327.101 43.0624 330.473 46.2391C333.604 49.2024 336.575 53.7139 339.091 59.2933C342.061 65.9138 345.406 72.7478 349.715 77.82C355.094 84.1202 360.5 85.9621 366.308 83.4528C366.629 83.3193 367.031 83.3727 367.298 83.6129C367.566 83.8532 367.673 84.2269 367.566 84.574C364.702 94.2378 341.472 104.729 336.147 105.503C335.665 105.557 335.237 105.583 334.782 105.583ZM295.334 58.4657C302.72 60.0674 308.742 65.8871 312.622 70.7724C318.109 77.6331 321.802 85.5083 323.461 90.5538C326.512 99.9506 330.687 104.355 335.826 103.635C340.268 102.994 360.019 94.0776 364.89 85.9088C350.679 89.833 341.419 69.1439 337.351 60.0674C332.587 49.4159 326.084 43.1425 321.16 44.4505C316.771 45.5985 301.168 54.9152 295.334 58.4657Z" fill="#202D37"/>
<path d="M316.37 55.5829C316.022 55.5829 315.701 55.396 315.54 55.0757C315.299 54.6218 315.486 54.0612 315.941 53.821C315.968 53.7943 319.875 51.7654 324.826 49.2827C325.281 49.0425 325.843 49.2293 326.084 49.6832C326.325 50.137 326.138 50.6976 325.683 50.9379C320.759 53.4472 316.851 55.4494 316.825 55.4761C316.664 55.5562 316.503 55.5829 316.37 55.5829Z" fill="#202D37"/>
<path d="M315.62 61.6699C315.326 61.6699 315.058 61.5364 314.871 61.2962C314.577 60.869 314.657 60.2817 315.085 59.9881C316.744 58.7868 322.177 56.0105 327.744 53.5545C328.225 53.3409 328.761 53.5545 328.975 54.035C329.189 54.5155 328.975 55.0494 328.493 55.263C323.114 57.6389 317.708 60.3618 316.182 61.483C316.022 61.5898 315.808 61.6699 315.62 61.6699Z" fill="#202D37"/>
<path d="M322.686 67.4084C322.365 67.4084 322.07 67.2482 321.883 66.9546C321.615 66.5274 321.749 65.9401 322.177 65.6732C322.231 65.6465 327.209 62.5765 330.929 60.6277C331.384 60.3874 331.946 60.5743 332.187 61.0281C332.427 61.482 332.24 62.0426 331.785 62.2828C328.145 64.1782 323.194 67.2215 323.141 67.2482C323.034 67.355 322.847 67.4084 322.686 67.4084Z" fill="#202D37"/>
<path d="M327.022 74.8301C326.727 74.8301 326.433 74.6966 326.272 74.4563C325.978 74.0292 326.058 73.4419 326.486 73.1482C326.513 73.1215 329.939 70.6655 333.15 68.6367C333.578 68.3697 334.167 68.4765 334.435 68.9303C334.702 69.3575 334.595 69.9448 334.14 70.2117C330.956 72.2139 327.61 74.6432 327.557 74.6699C327.423 74.7767 327.209 74.8301 327.022 74.8301Z" fill="#202D37"/>
<path d="M340.831 214.448C340.323 214.448 339.894 214.048 339.894 213.541C339.894 213.487 339.894 213.354 339.868 213.194C339.306 206.493 339.948 204.838 341.099 204.384C342.597 203.797 347.95 203.663 349.02 203.637C349.02 203.637 349.02 203.637 349.047 203.637C349.556 203.637 349.984 204.037 349.984 204.544C349.984 205.052 349.582 205.479 349.074 205.505C346.826 205.559 342.999 205.746 341.902 206.066C341.741 206.333 341.313 207.614 341.768 213.007C341.795 213.327 341.795 213.407 341.795 213.487C341.768 214.021 341.34 214.448 340.831 214.448Z" fill="#FBD931"/>
<path d="M392.964 213.541C392.937 213.541 392.911 213.541 392.884 213.541C392.375 213.487 391.974 213.034 392.027 212.526C392.188 210.658 392.349 207.374 392.081 206.36C391.546 205.906 388.709 205.505 385.899 205.505C385.39 205.505 384.962 205.078 384.962 204.571C384.962 204.064 385.39 203.637 385.899 203.637C389.244 203.637 393.312 204.01 393.847 205.746C394.329 207.294 393.954 211.806 393.874 212.687C393.847 213.194 393.446 213.541 392.964 213.541Z" fill="#FBD931"/>
<path d="M389.538 250.14C388.093 250.14 386.755 249.953 386.3 249.873C385.792 249.793 385.444 249.312 385.524 248.805C385.604 248.298 386.086 247.951 386.595 248.031C389.378 248.458 391.947 248.245 392.215 247.764C392.349 245.708 392.215 241.864 392.215 241.811C392.188 241.304 392.589 240.85 393.125 240.85C393.633 240.85 394.088 241.224 394.088 241.758C394.088 241.918 394.222 245.735 394.088 247.898C394.061 248.431 393.794 248.912 393.339 249.286C392.509 249.953 390.984 250.14 389.538 250.14Z" fill="#FBD931"/>
<path d="M348.218 250.674C347.254 250.674 343.962 250.62 342.838 250.006C342.437 249.793 341.34 249.206 341.34 241.784C341.34 241.277 341.768 240.85 342.276 240.85C342.785 240.85 343.213 241.277 343.213 241.784C343.213 244.454 343.454 247.657 343.828 248.405C344.471 248.645 346.532 248.778 348.218 248.778C348.726 248.778 349.154 249.206 349.154 249.713C349.154 250.22 348.753 250.674 348.218 250.674Z" fill="#FBD931"/>
<path d="M356.46 226.728C354.185 226.728 351.697 226.675 350.439 226.488C349.984 226.408 349.208 226.301 349.02 225.581C348.539 223.792 348.485 217.599 351.242 214.128C353.008 211.912 357.236 211.379 363.847 212.5C364.007 212.526 364.141 212.553 364.195 212.553C364.543 212.58 364.837 212.767 364.997 213.087C365.105 213.301 365.372 213.808 365.345 219.494C365.319 225.207 365.051 225.607 364.917 225.821C364.623 226.275 364.435 226.595 358.28 226.702C357.718 226.729 357.103 226.728 356.46 226.728ZM350.733 224.646C352.767 224.967 361.144 224.94 363.311 224.62C363.499 222.751 363.526 216.264 363.365 214.342C355.791 213.06 353.436 214.395 352.714 215.303C350.573 217.972 350.465 222.831 350.733 224.646ZM364.141 212.58H364.168H364.141Z" fill="#202D37"/>
<path d="M358.896 222.964H357.317C356.38 222.964 355.604 222.19 355.604 221.256V220.134C355.604 219.2 356.38 218.426 357.317 218.426H358.896C359.832 218.426 360.608 219.2 360.608 220.134V221.256C360.608 222.217 359.832 222.964 358.896 222.964Z" fill="#202D37"/>
<path d="M358.896 223.365H357.317C356.139 223.365 355.203 222.43 355.203 221.256V220.134C355.203 218.96 356.139 218.025 357.317 218.025H358.896C360.073 218.025 361.01 218.96 361.01 220.134V221.256C361.01 222.43 360.047 223.365 358.896 223.365ZM357.317 218.853C356.594 218.853 356.005 219.44 356.005 220.161V221.282C356.005 222.003 356.594 222.59 357.317 222.59H358.896C359.618 222.59 360.207 222.003 360.207 221.282V220.161C360.207 219.44 359.618 218.853 358.896 218.853H357.317Z" fill="#202D37"/>
<path d="M358.896 239.943H357.317C356.38 239.943 355.604 239.168 355.604 238.234V237.113C355.604 236.178 356.38 235.404 357.317 235.404H358.896C359.832 235.404 360.608 236.178 360.608 237.113V238.234C360.608 239.168 359.832 239.943 358.896 239.943Z" fill="#202D37"/>
<path d="M358.896 240.343H357.317C356.139 240.343 355.203 239.408 355.203 238.234V237.113C355.203 235.938 356.139 235.004 357.317 235.004H358.896C360.073 235.004 361.01 235.938 361.01 237.113V238.234C361.01 239.408 360.047 240.343 358.896 240.343ZM357.317 235.805C356.594 235.805 356.005 236.392 356.005 237.113V238.234C356.005 238.955 356.594 239.542 357.317 239.542H358.896C359.618 239.542 360.207 238.955 360.207 238.234V237.113C360.207 236.392 359.618 235.805 358.896 235.805H357.317Z" fill="#202D37"/>
<path d="M377.014 222.137H375.435C374.498 222.137 373.722 221.363 373.722 220.429V219.307C373.722 218.373 374.498 217.599 375.435 217.599H377.014C377.951 217.599 378.727 218.373 378.727 219.307V220.429C378.727 221.363 377.951 222.137 377.014 222.137Z" fill="#202D37"/>
<path d="M377.014 222.537H375.435C374.257 222.537 373.321 221.603 373.321 220.428V219.307C373.321 218.133 374.257 217.198 375.435 217.198H377.014C378.191 217.198 379.128 218.133 379.128 219.307V220.428C379.128 221.576 378.165 222.537 377.014 222.537ZM375.435 217.999C374.712 217.999 374.124 218.586 374.124 219.307V220.428C374.124 221.149 374.712 221.736 375.435 221.736H377.014C377.736 221.736 378.325 221.149 378.325 220.428V219.307C378.325 218.586 377.736 217.999 377.014 217.999H375.435Z" fill="#202D37"/>
<path d="M377.014 239.943H375.435C374.498 239.943 373.722 239.168 373.722 238.234V237.113C373.722 236.178 374.498 235.404 375.435 235.404H377.014C377.951 235.404 378.727 236.178 378.727 237.113V238.234C378.727 239.168 377.951 239.943 377.014 239.943Z" fill="#202D37"/>
<path d="M377.014 240.343H375.435C374.257 240.343 373.321 239.408 373.321 238.234V237.113C373.321 235.938 374.257 235.004 375.435 235.004H377.014C378.191 235.004 379.128 235.938 379.128 237.113V238.234C379.128 239.408 378.165 240.343 377.014 240.343ZM375.435 235.805C374.712 235.805 374.124 236.392 374.124 237.113V238.234C374.124 238.955 374.712 239.542 375.435 239.542H377.014C377.736 239.542 378.325 238.955 378.325 238.234V237.113C378.325 236.392 377.736 235.805 377.014 235.805H375.435Z" fill="#202D37"/>
<path d="M376.238 227.076C373.963 227.076 371.474 226.969 370.297 226.702C369.226 226.462 369.012 225.875 369.039 225.447C369.039 225.234 369.066 224.566 369.066 223.712C369.226 212.794 369.467 212.553 369.922 212.153C370.885 211.299 377.094 211.192 380.707 212.981C382.982 214.102 383.972 217.332 384.427 219.868C384.829 222.244 384.909 225.1 384.588 225.848C384.374 226.355 384.133 226.889 377.978 227.022C377.416 227.049 376.827 227.076 376.238 227.076ZM370.885 224.913C372.946 225.314 380.895 225.261 382.848 224.833C382.982 223.018 382.527 215.997 379.851 214.662C377.041 213.274 372.598 213.328 371.287 213.568C371.046 215.223 370.939 221.55 370.912 223.739C370.912 224.219 370.912 224.62 370.885 224.913Z" fill="#202D37"/>
<path d="M361.384 248.112C357.959 248.112 351.964 247.445 350.037 243.013C348.297 239.009 349.18 232.308 349.769 231.427C350.037 231 350.331 230.546 354.988 230.413C357.343 230.359 360.126 230.413 362.053 230.573C364.167 230.733 364.81 230.947 365.051 231.561C365.345 232.228 365.265 236.713 365.211 239.329C365.024 246.457 364.676 247.204 364.542 247.445C364.355 247.845 364.034 247.979 363.873 248.005C363.846 248.005 362.856 248.112 361.384 248.112ZM351.321 232.575C351 233.883 350.385 239.142 351.75 242.266C353.516 246.323 360.795 246.403 362.936 246.217C363.284 243.974 363.498 234.818 363.338 232.575C361.331 232.228 353.088 232.095 351.321 232.575Z" fill="#202D37"/>
<path d="M370.136 236.339H370.109C369.6 236.312 369.172 235.885 369.199 235.378C369.226 234.497 369.226 233.749 369.226 233.109C369.226 231.32 369.226 230.653 369.707 230.172C370.055 229.825 370.136 229.745 379.208 229.905C379.717 229.905 380.145 230.332 380.118 230.866C380.118 231.373 379.69 231.774 379.181 231.774C379.181 231.774 379.181 231.774 379.155 231.774C375.997 231.72 372.464 231.694 371.099 231.72C371.072 232.094 371.072 232.601 371.072 233.109C371.072 233.749 371.072 234.523 371.046 235.431C371.046 235.938 370.644 236.339 370.136 236.339Z" fill="#202D37"/>
<path d="M378.299 247.124C377.924 247.124 377.576 246.91 377.442 246.563C377.228 246.083 377.469 245.549 377.924 245.335C380.547 244.214 383.812 242.826 383.25 230.493C383.223 229.985 383.624 229.532 384.133 229.505C384.641 229.478 385.096 229.879 385.123 230.386C385.712 242.96 382.393 245.442 378.673 247.044C378.54 247.097 378.433 247.124 378.299 247.124Z" fill="#202D37"/>
<path d="M371.929 247.711C370.27 247.711 369.574 247.551 369.28 246.91C369.092 246.51 369.066 245.843 369.039 242.559C369.039 241.865 369.012 241.091 369.012 240.29C369.012 239.783 369.414 239.356 369.922 239.329C370.431 239.329 370.859 239.729 370.886 240.236C370.886 241.037 370.912 241.812 370.912 242.532C370.939 243.814 370.939 245.122 370.993 245.816C371.662 245.869 372.919 245.843 373.535 245.816C373.883 245.816 374.177 245.789 374.391 245.789C374.9 245.789 375.328 246.216 375.328 246.724C375.328 247.231 374.9 247.658 374.391 247.658C374.204 247.658 373.936 247.658 373.589 247.685C372.946 247.711 372.384 247.711 371.929 247.711Z" fill="#202D37"/>
<path d="M205.279 150.539C205.252 150.539 205.225 150.539 205.171 150.539C204.663 150.486 204.288 150.032 204.342 149.525C205.733 136.203 210.685 115.835 211.755 111.483C210.23 110.949 206.777 109.748 203.352 108.333C194.788 104.783 193.717 103.074 193.824 101.766C193.904 100.885 194.012 99.6572 210.765 93.1702C218.794 90.0468 226.903 87.1904 226.983 87.1637C227.465 87.0035 228 87.2438 228.187 87.7243C228.348 88.2048 228.107 88.7387 227.625 88.9256C213.147 94.0244 197.571 100.191 195.751 102.006C195.992 102.434 197.357 103.848 204.449 106.758C208.784 108.547 213.093 109.962 213.147 109.988C213.602 110.149 213.869 110.629 213.762 111.11C213.709 111.35 207.741 134.949 206.188 149.738C206.162 150.192 205.76 150.539 205.279 150.539Z" fill="#202D37"/>
<path d="M225.056 121.414C224.548 121.414 224.12 120.987 224.12 120.48C224.12 119.972 224.548 119.545 225.056 119.545C229.633 119.545 232.309 117.516 232.55 113.832C232.577 113.325 233.032 112.925 233.54 112.951C234.049 112.978 234.45 113.432 234.423 113.939C234.102 118.611 230.596 121.414 225.056 121.414Z" fill="#202D37"/>
<path d="M235.173 159.589C235.146 159.589 235.092 159.589 235.066 159.589C234.557 159.536 234.183 159.082 234.236 158.548C234.932 152.141 235.922 144.453 237.18 135.697C238.812 124.217 240.311 114.954 240.311 114.847C240.391 114.393 240.793 114.046 241.248 114.073C244.326 114.127 247.002 113.993 249.196 113.646C253.773 112.925 255.271 111.564 255.753 110.816C256.074 110.309 256.155 109.748 255.967 109.161C255.378 107.212 248.902 105.504 240.231 106.064C239.722 106.091 239.267 105.717 239.241 105.183C239.214 104.676 239.589 104.222 240.124 104.196C247.831 103.715 256.636 104.89 257.787 108.627C258.135 109.748 257.974 110.843 257.359 111.831C256.208 113.646 253.585 114.901 249.517 115.515C247.403 115.835 244.914 115.995 242.051 115.969C241.649 118.451 240.391 126.46 239.053 135.99C237.822 144.72 236.832 152.381 236.136 158.761C236.056 159.242 235.654 159.589 235.173 159.589Z" fill="#202D37"/>
<path d="M241.916 110.843C241.461 110.843 241.06 110.496 240.98 110.042C240.899 109.535 241.274 109.054 241.783 109.001C245.556 108.494 249.785 108.681 249.972 108.707C250.48 108.734 250.882 109.161 250.855 109.695C250.828 110.202 250.373 110.603 249.865 110.576C249.811 110.576 245.636 110.362 242.023 110.87C241.997 110.843 241.97 110.843 241.916 110.843Z" fill="#202D37"/>
<path d="M240.498 89.8331C240.498 89.8331 247.108 86.7899 252.033 92.2624C257.76 98.6961 251.578 105.53 251.444 105.744C247.804 105.023 243.736 104.996 243.736 104.996C244.138 111.51 241.462 112.524 240.311 112.364C239.133 112.204 239.561 109.908 239.561 109.908C223.156 104.249 228.268 90.3137 228.268 90.3137C225.163 91.595 219.382 90.901 219.249 90.9544C221.122 81.3973 236.27 82.5452 240.498 89.8331Z" fill="#202D37"/>
<path d="M240.525 113.326C240.391 113.326 240.284 113.326 240.15 113.299C239.669 113.219 239.267 112.979 238.999 112.605C238.571 112.018 238.518 111.19 238.545 110.576C233.406 108.654 229.847 105.718 228 101.82C226.1 97.8424 226.475 93.8648 226.93 91.7024C224.227 92.263 220.908 92.0228 219.65 91.9427C219.49 91.9427 219.356 91.916 219.302 91.916C219.061 91.9427 218.821 91.8626 218.633 91.7024C218.366 91.4889 218.259 91.1418 218.312 90.8215C219.115 86.8438 222.112 84.1209 226.555 83.3734C232.095 82.4391 238.09 84.7349 240.873 88.7125C242.88 88.0718 248.447 86.8705 252.729 91.6757C258.242 97.8691 253.746 104.41 252.22 106.278L252.167 106.332C251.953 106.625 251.578 106.759 251.23 106.705C248.768 106.225 246.092 106.065 244.673 105.985C244.727 109.028 244.084 111.19 242.746 112.418C242.131 112.979 241.301 113.326 240.525 113.326ZM240.498 111.457C240.659 111.457 241.06 111.43 241.515 111.03C242.104 110.496 243.041 109.001 242.8 105.077C242.773 104.81 242.88 104.57 243.067 104.383C243.255 104.196 243.496 104.089 243.763 104.089C243.924 104.089 247.537 104.143 251.069 104.757C252.755 102.541 255.539 97.6022 251.364 92.9037C246.975 87.9917 240.98 90.6613 240.926 90.688C240.498 90.9016 239.963 90.7147 239.722 90.3143C237.554 86.6036 231.934 84.3612 226.903 85.1887C224.949 85.5091 221.657 86.5769 220.453 90.1007C222.246 90.2075 225.806 90.3143 227.92 89.46C228.268 89.3265 228.669 89.4066 228.937 89.6469C229.204 89.9138 229.285 90.2876 229.178 90.6346C229.151 90.688 227.304 95.9203 229.74 101.019C231.452 104.596 234.878 107.293 239.909 109.028C240.338 109.188 240.605 109.615 240.525 110.096C240.391 110.603 240.391 111.217 240.498 111.457Z" fill="#202D37"/>
<path d="M251.444 134.735C247.323 137.458 242.158 138.499 238.116 135.83C239.776 124.217 241.248 115.007 241.248 115.007C244.539 115.061 247.216 114.901 249.357 114.553C246.895 122.002 247.269 128.515 249.624 128.862C252.22 129.263 253.21 128.408 254.468 127.501C255.726 126.647 256.69 131.238 251.444 134.735Z" fill="#202D37"/>
<path d="M243.469 138.339C241.355 138.339 239.348 137.779 237.608 136.631C237.314 136.444 237.153 136.07 237.207 135.723C238.839 124.244 240.338 114.981 240.338 114.874C240.418 114.42 240.82 114.073 241.275 114.1C244.353 114.153 247.029 114.02 249.223 113.673C249.544 113.619 249.866 113.753 250.08 113.993C250.294 114.233 250.347 114.58 250.267 114.901C248.287 120.907 248.287 125.926 249.304 127.581C249.464 127.821 249.625 127.981 249.785 128.008C251.819 128.328 252.622 127.768 253.693 126.994L253.96 126.807C254.415 126.486 254.924 126.433 255.405 126.647C255.994 126.914 256.369 127.608 256.449 128.515C256.583 130.304 255.486 133.24 252.007 135.563C249.143 137.405 246.199 138.339 243.469 138.339ZM239.134 135.376C242.426 137.245 246.788 136.738 250.936 133.988C253.693 132.173 254.335 130.197 254.469 129.45C254.522 129.129 254.549 128.862 254.522 128.675C253.372 129.503 252.114 130.251 249.464 129.85C248.956 129.77 248.26 129.476 247.671 128.569C246.279 126.326 246.44 121.174 248.019 115.728C246.253 115.915 244.246 116.022 242.024 115.995C241.65 118.398 240.445 126.113 239.134 135.376Z" fill="#202D37"/>
<path d="M27.9241 66.4753C24.8197 66.4753 21.3941 66.2884 17.8079 66.0749C15.3725 65.9414 12.8301 65.8079 10.3412 65.7278C9.83271 65.7011 9.43127 65.274 9.43127 64.7668C9.45804 64.2596 9.88623 63.8325 10.3947 63.8591C12.9104 63.9392 15.4528 64.0727 17.8882 64.2329C28.4861 64.8202 38.5221 65.3808 39.5391 60.6824C39.6729 60.0684 39.8334 59.2942 40.0208 58.4133C43.0717 43.9977 46.4438 28.9414 48.2636 26.4053C51.2075 22.2675 64 25.6578 65.4451 26.0582C65.9536 26.1917 66.248 26.6989 66.0874 27.2061C65.9536 27.7134 65.4451 28.007 64.9366 27.8468C59.9588 26.4854 51.4216 25.1506 49.7623 27.4998C47.9425 30.0626 43.4999 50.9385 41.8406 58.8137C41.6533 59.6946 41.4927 60.4688 41.3589 61.0828C40.449 65.4342 35.1232 66.4753 27.9241 66.4753Z" fill="#202D37"/>
<path d="M18.9774 71.2028C20.472 69.712 20.472 67.2949 18.9774 65.8041C17.4829 64.3133 15.0598 64.3133 13.5652 65.8041C12.0707 67.2949 12.0707 69.7119 13.5652 71.2027C15.0598 72.6935 17.4829 72.6936 18.9774 71.2028Z" fill="#202D37"/>
<path d="M16.2822 72.7488C13.9538 72.7488 12.0537 70.8534 12.0537 68.5309C12.0537 66.2084 13.9538 64.313 16.2822 64.313C18.6105 64.313 20.5107 66.2084 20.5107 68.5309C20.5107 70.8534 18.6105 72.7488 16.2822 72.7488ZM16.2822 65.0872C14.382 65.0872 12.8566 66.6355 12.8566 68.5042C12.8566 70.3996 14.4088 71.9212 16.2822 71.9212C18.1823 71.9212 19.7078 70.3729 19.7078 68.5042C19.7078 66.6355 18.1823 65.0872 16.2822 65.0872Z" fill="#202D37"/>
<path d="M33.0089 72.695C35.1225 72.695 36.8359 70.9858 36.8359 68.8775C36.8359 66.7692 35.1225 65.0601 33.0089 65.0601C30.8953 65.0601 29.1819 66.7692 29.1819 68.8775C29.1819 70.9858 30.8953 72.695 33.0089 72.695Z" fill="#202D37"/>
<path d="M33.0091 73.0955C30.6808 73.0955 28.7806 71.2001 28.7806 68.8776C28.7806 66.555 30.6808 64.6597 33.0091 64.6597C35.3374 64.6597 37.2376 66.555 37.2376 68.8776C37.2376 71.2001 35.3374 73.0955 33.0091 73.0955ZM33.0091 65.4338C31.109 65.4338 29.5835 66.9822 29.5835 68.8509C29.5835 70.7463 31.1357 72.2679 33.0091 72.2679C34.8825 72.2679 36.4347 70.7196 36.4347 68.8509C36.4347 66.9822 34.8825 65.4338 33.0091 65.4338Z" fill="#202D37"/>
<path d="M9.61845 55.0759C9.27054 55.0759 8.92263 55.0759 8.60148 55.0759C8.09299 55.0759 7.66479 54.6487 7.66479 54.1415C7.66479 53.6343 8.09299 53.2072 8.60148 53.2072C17.1655 53.2606 41.7602 52.6466 42.0011 52.6199C42.5096 52.6199 42.9378 53.0203 42.9645 53.5275C42.9645 54.0347 42.5631 54.4619 42.0546 54.4886C41.8137 54.5153 18.9853 55.0759 9.61845 55.0759Z" fill="#202D37"/>
<path d="M46.497 35.2941C44.918 35.2941 8.09281 35.0272 1.05428 34.3598C0.545789 34.3064 0.171119 33.8526 0.197881 33.3454C0.251406 32.8381 0.706365 32.4644 1.21485 32.4911C8.14633 33.1585 46.0955 33.4254 46.497 33.4254C47.0054 33.4254 47.4336 33.8526 47.4336 34.3598C47.4336 34.867 47.0322 35.2941 46.497 35.2941Z" fill="#202D37"/>
<path d="M10.4755 54.7822C10.2078 54.7822 9.91345 54.6488 9.75288 54.4352C7.63864 51.7923 2.50024 40.2065 2.50024 33.586C2.50024 33.0787 2.92844 32.6516 3.43693 32.6516C3.94542 32.6516 4.37362 33.0787 4.37362 33.586C4.37362 39.6192 9.35144 50.9114 11.2248 53.2873C11.546 53.6877 11.4657 54.275 11.0642 54.5954C10.9037 54.7288 10.6896 54.7822 10.4755 54.7822Z" fill="#202D37"/>
<path d="M25.1405 44.7981C19.4668 44.7981 12.8833 44.7981 5.8715 44.7981C5.36301 44.7981 4.93481 44.371 4.93481 43.8638C4.93481 43.3566 5.36301 42.9294 5.8715 42.9294C26.773 42.9561 44.008 42.9294 44.1954 42.9294C44.7039 42.9294 45.1321 43.3566 45.1321 43.8638C45.1321 44.371 44.7039 44.7981 44.1954 44.7981C44.0616 44.7981 36.4075 44.7981 25.1405 44.7981Z" fill="#202D37"/>
<path d="M18.6373 54.7829C18.2091 54.7829 17.8077 54.4625 17.7274 54.0354C16.4696 47.3615 17.1386 34.5209 17.1654 33.9603C17.1922 33.4531 17.6204 33.0527 18.1556 33.0794C18.6641 33.1061 19.0655 33.5599 19.0388 34.0671C19.0388 34.2006 18.343 47.228 19.574 53.6884C19.6811 54.1956 19.3332 54.6761 18.8247 54.7829C18.7444 54.7829 18.6909 54.7829 18.6373 54.7829Z" fill="#202D37"/>
<path d="M32.1527 54.4887C31.6709 54.4887 31.2427 54.115 31.216 53.6345C31.216 53.5544 30.5737 44.4779 31.7512 34.12C31.8048 33.6128 32.2865 33.239 32.795 33.2924C33.3035 33.3458 33.6781 33.8263 33.6246 34.3336C32.4471 44.5046 33.0894 53.4209 33.0894 53.501C33.1161 54.0082 32.7415 54.462 32.233 54.4887C32.2062 54.4887 32.1794 54.4887 32.1527 54.4887Z" fill="#202D37"/>
<path d="M258.617 286.152C258.055 286.152 257.519 286.099 257.038 286.019C256.529 285.939 256.181 285.458 256.262 284.951C256.342 284.444 256.824 284.097 257.332 284.177C260.624 284.684 267.743 283.51 278.689 269.708C299.403 243.6 305.371 228.704 301.437 212.766C297.208 195.628 277.484 184.042 271.543 180.892C268.412 179.237 261.935 175.312 255.057 171.121C246.814 166.129 236.591 159.936 235.119 159.562C234.825 159.589 234.236 159.829 233.594 160.123C231.051 161.217 226.288 163.273 217.75 161.164C209.641 159.188 207.607 155.184 206.269 152.514C205.761 151.5 205.359 150.726 204.797 150.379C202.549 149.017 181.059 147.229 175.947 147.122H175.412C167.009 146.962 159.114 146.321 158.257 142.744C157.802 140.795 156.652 139.087 151.433 139.887C149.319 140.208 147.9 139.968 146.964 139.113C145.893 138.126 145.84 136.55 145.947 135.136C146 134.548 146.134 132.733 143.137 132.466L142.976 132.439C140.032 132.199 139.149 131.131 138.988 124.698C138.855 119.812 127.374 109.081 121.86 103.928C120.121 102.3 118.863 101.125 118.301 100.485C116.615 98.536 108.238 96.3203 103.207 95.6529C102.699 95.5728 102.324 95.119 102.404 94.6117C102.484 94.1045 102.939 93.7308 103.448 93.8109C107.516 94.3448 117.284 96.4804 119.719 99.2835C120.201 99.8441 121.513 101.072 123.145 102.594C131.629 110.522 140.728 119.439 140.862 124.671C140.942 127.607 141.183 129.316 141.611 130.037C141.852 130.437 142.093 130.517 143.137 130.597L143.297 130.624C146.321 130.891 148.007 132.626 147.82 135.296C147.713 136.657 147.847 137.405 148.248 137.752C148.703 138.179 149.693 138.259 151.165 138.045C153.066 137.752 158.819 136.898 160.104 142.317C160.184 142.69 160.88 143.918 165.992 144.639C169.31 145.12 173.164 145.2 175.492 145.227H176.028C179.239 145.28 202.763 146.908 205.814 148.75C206.831 149.364 207.367 150.405 207.982 151.633C209.24 154.116 210.98 157.533 218.232 159.295C226.181 161.244 230.382 159.429 232.898 158.334C233.861 157.934 234.557 157.613 235.226 157.64C236.404 157.667 241.194 160.47 256.074 169.466C262.926 173.631 269.402 177.555 272.48 179.183C278.608 182.413 298.894 194.373 303.31 212.259C307.405 228.837 301.356 244.16 280.214 270.802C270.392 283.189 263.247 286.152 258.617 286.152Z" fill="#202D37"/>
<path d="M242.238 265.811C241.837 265.811 241.462 265.544 241.328 265.143C239.482 258.683 239.883 257.188 241.596 254.172C242.265 253.024 244.62 250.221 247.644 246.643C252.729 240.61 260.41 231.534 261.4 228.197C262.845 223.338 260.891 216.397 237.18 198.725C236.778 198.405 236.671 197.844 236.993 197.417C237.314 197.016 237.876 196.91 238.304 197.23C261.561 214.555 265.066 222.35 263.193 228.704C262.096 232.388 254.897 240.957 249.089 247.818C246.252 251.182 243.817 254.065 243.255 255.053C241.783 257.615 241.462 258.603 243.175 264.583C243.309 265.09 243.041 265.597 242.532 265.731C242.399 265.811 242.318 265.811 242.238 265.811Z" fill="#202D37"/>
<path d="M171.665 192.771C171.639 192.771 171.585 192.771 171.558 192.771C167.035 192.21 126.945 186.818 113.35 174.992C98.1756 161.778 82.8674 123.923 82.7336 123.549C81.2349 119.732 81.0476 116.609 81.9843 110.736C82.0646 110.228 82.5463 109.881 83.0548 109.961C83.5633 110.042 83.9112 110.522 83.8309 111.029C82.9477 116.582 83.0815 119.358 84.4732 122.882C84.607 123.256 99.7278 160.656 114.581 173.604C127.748 185.083 167.33 190.368 171.799 190.929C172.308 190.982 172.682 191.463 172.602 191.97C172.549 192.424 172.12 192.771 171.665 192.771Z" fill="#202D37"/>
<path d="M161.549 211.405C161.388 211.405 161.201 211.352 161.067 211.272C160.639 211.005 160.478 210.418 160.746 209.99C162.78 206.68 172.976 189.675 175.492 179.077C175.599 178.57 176.107 178.249 176.616 178.383C177.124 178.49 177.419 178.997 177.312 179.504C174.742 190.396 164.385 207.641 162.351 210.978C162.164 211.245 161.843 211.405 161.549 211.405Z" fill="#202D37"/>
<path d="M251.39 290.424C250.775 290.424 249.49 290.424 242.532 282.069C240.337 279.426 235.948 273.9 235.734 273.072C234.985 270.216 240.043 265.544 241.622 264.183C241.836 263.996 242.103 263.916 242.371 263.969C242.639 263.996 242.88 264.156 243.013 264.37C246.332 269.388 255.458 282.79 257.733 284.471C257.947 284.631 258.081 284.845 258.107 285.112C258.134 285.379 258.054 285.619 257.893 285.806C257.251 286.58 253.933 290.424 251.39 290.424ZM237.527 272.512C237.902 273.179 240.685 276.89 243.95 280.841C249.651 287.701 251.176 288.476 251.417 288.556C252.514 288.502 254.468 286.794 255.859 285.299C252.541 281.882 244.485 269.976 242.05 266.318C239.588 268.587 237.367 271.417 237.527 272.512Z" fill="#202D37"/>
<path d="M219.222 311.567C218.527 311.567 217.965 311.354 217.59 310.927C217.055 310.339 216.948 309.485 217.322 308.337C215.931 309.138 214.485 309.699 213.549 309.352C212.987 309.138 212.639 308.684 212.505 308.044C212.104 305.748 214.378 303.212 216.814 300.542C218.393 298.78 220.025 296.965 220.587 295.523C221.444 293.228 221.658 291.519 221.658 290.665C221.604 290.692 221.551 290.718 221.497 290.718C218.152 292 214.432 293.308 212.532 292.347C211.97 292.053 211.595 291.599 211.435 291.012C210.846 288.823 214.833 286.207 223.183 280.921C227.626 278.118 232.684 274.941 236.083 272.085C236.484 271.764 237.073 271.791 237.394 272.191C237.715 272.592 237.689 273.179 237.287 273.5C233.781 276.436 228.67 279.666 224.173 282.496C221.23 284.365 218.446 286.1 216.386 287.595C213.629 289.597 213.281 290.344 213.254 290.531C213.281 290.585 213.308 290.611 213.388 290.665C214.726 291.332 219.329 289.544 220.855 288.956C221.711 288.636 221.952 288.529 222.166 288.529C222.541 288.502 222.916 288.663 223.157 288.983C224.013 290.104 223.344 293.495 222.354 296.164C221.685 297.953 219.918 299.901 218.232 301.77C216.359 303.826 214.271 306.175 214.352 307.59C215.128 307.51 217.376 306.228 219.276 304.707C219.624 304.413 220.159 304.44 220.48 304.733C220.828 305.054 220.882 305.561 220.641 305.935C218.901 308.604 218.982 309.485 219.008 309.645C219.196 309.699 220.025 309.725 221.738 308.871C222.113 308.684 222.594 308.764 222.862 309.085C222.996 309.245 223.237 309.459 223.772 309.485C226.1 309.565 230.73 305.855 233.085 303.505C233.433 303.158 233.969 303.132 234.343 303.425C234.718 303.719 234.798 304.253 234.531 304.653C233.808 305.801 232.818 307.857 233.005 308.684V308.711C233.862 308.417 236.457 306.415 240.686 301.824C244.727 297.419 248.447 292.587 250.615 288.956C250.882 288.502 251.444 288.369 251.899 288.636C252.354 288.903 252.488 289.464 252.221 289.917C249.892 293.815 245.798 299.101 241.489 303.719C234.129 311.621 232.737 310.82 232.149 310.473C231.667 310.179 231.319 309.725 231.185 309.165C231.078 308.711 231.105 308.231 231.185 307.697C228.937 309.485 225.967 311.434 223.692 311.381C223.049 311.354 222.487 311.167 222.006 310.847C220.908 311.327 219.972 311.567 219.222 311.567Z" fill="#202D37"/>
<path d="M219.838 306.388C219.57 306.388 219.303 306.281 219.115 306.067C218.767 305.667 218.821 305.08 219.222 304.759C223.023 301.502 226.93 297.124 227.599 295.87C227.84 295.416 228.402 295.229 228.857 295.496C229.312 295.736 229.499 296.297 229.231 296.751C228.375 298.326 224.254 302.891 220.4 306.174C220.266 306.334 220.052 306.388 219.838 306.388Z" fill="#202D37"/>
<path d="M222.139 310.686C221.845 310.686 221.55 310.553 221.363 310.286C221.069 309.859 221.176 309.271 221.604 308.978C226.555 305.587 231.586 299.26 231.64 299.207C231.961 298.807 232.55 298.726 232.951 299.047C233.353 299.367 233.433 299.954 233.112 300.355C232.898 300.622 227.84 306.975 222.674 310.499C222.514 310.633 222.327 310.686 222.139 310.686Z" fill="#202D37"/>
<path d="M233.701 305.133C233.487 305.133 233.273 305.053 233.086 304.893C232.684 304.546 232.657 303.959 233.005 303.585C233.567 302.918 234.21 302.143 234.504 301.743C234.691 301.503 235.28 300.755 236.003 301.289C236.297 301.503 236.591 302.037 236.19 302.624C236.163 302.677 236.11 302.731 236.056 302.757C236.029 302.784 236.003 302.811 235.976 302.864C235.655 303.265 235.039 304.092 234.424 304.786C234.236 305.027 233.969 305.133 233.701 305.133Z" fill="#202D37"/>
<path d="M127.935 266.345C127.454 266.345 127.052 265.971 126.999 265.49C126.811 263.355 125.901 251.929 125.125 237.7C124.67 229.131 124.51 223.205 126.624 218.853C128.926 214.075 133.823 211.672 142.494 211.085C149.265 210.604 162.218 209.483 177.232 208.175C200.141 206.173 228.643 203.663 244.968 202.702C245.476 202.676 245.931 203.076 245.958 203.583C245.985 204.091 245.583 204.544 245.075 204.571C228.776 205.532 200.301 208.015 177.392 210.044C162.379 211.352 149.426 212.5 142.628 212.954C134.706 213.514 130.317 215.57 128.337 219.681C126.437 223.605 126.597 229.345 127.025 237.594C127.802 251.796 128.712 263.195 128.872 265.33C128.926 265.837 128.524 266.291 128.016 266.345C127.989 266.345 127.962 266.345 127.935 266.345Z" fill="#202D37"/>
<path d="M129.889 304.92C125.928 304.92 123.573 303.959 122.556 302.037C118.996 295.149 119.531 275.875 120.87 269.842C122.288 263.435 127.346 264.289 131.039 264.903C131.334 264.957 131.601 265.01 131.896 265.037C135.535 265.624 152.61 262.634 159.113 261.006C162.913 260.045 166.259 259.377 168.587 260.952C170.193 262.02 171.129 263.996 171.584 267.146C172.28 272.191 172.923 280.333 173.431 290.638C173.672 295.79 170.487 296.858 161.254 298.62C159.033 299.047 156.035 299.821 152.583 300.729C146.829 302.224 140.299 303.906 134.759 304.653C132.886 304.813 131.28 304.92 129.889 304.92ZM122.689 270.216C121.298 276.516 121.137 295.203 124.215 301.156C124.857 302.384 127.159 303.665 134.465 302.704C139.898 301.983 146.374 300.328 152.075 298.833C155.581 297.926 158.605 297.152 160.879 296.698C170.728 294.829 171.692 293.895 171.531 290.665C171.022 280.413 170.407 272.351 169.711 267.333C169.363 264.797 168.641 263.195 167.543 262.447C166.018 261.406 163.556 261.753 159.568 262.768C153.573 264.289 135.75 267.493 131.601 266.852C131.307 266.799 131.013 266.745 130.745 266.719C126.356 265.998 123.653 265.864 122.689 270.216Z" fill="#202D37"/>
<path d="M157.293 339.998C136.847 339.998 133.047 334.098 132.297 329.052C131.628 324.648 130.37 314.397 129.782 304.039C129.755 303.531 130.156 303.078 130.665 303.051C131.173 303.024 131.628 303.425 131.655 303.932C132.244 314.21 133.502 324.381 134.171 328.759C134.545 331.295 135.803 334.472 142.306 336.42C150.415 338.85 164.546 338.663 184.297 335.806C204.128 332.95 229.9 328.839 252.675 325.208C276.681 321.391 297.395 318.081 304.54 317.306C317.788 315.865 325.228 314.236 323.863 297.418C322.525 281.054 316.824 222.243 315.112 209.723C313.506 198.057 309.384 196.989 293.835 197.844C293.327 197.87 292.872 197.47 292.845 196.963C292.818 196.456 293.22 196.002 293.728 195.975C301.971 195.521 307.11 195.628 310.642 197.443C314.175 199.285 316.022 202.756 316.931 209.456C318.671 222.003 324.371 280.867 325.71 297.258C327.182 315.411 318.778 317.653 304.728 319.175C297.636 319.949 276.922 323.259 252.942 327.077C230.194 330.708 204.395 334.819 184.538 337.675C173.163 339.303 164.278 339.998 157.293 339.998Z" fill="#202D37"/>
<path d="M157.053 288.181C153.199 288.181 150.068 285.058 150.068 281.214C150.068 277.37 153.199 274.246 157.053 274.246C160.907 274.246 164.038 277.37 164.038 281.214C164.038 285.058 160.907 288.181 157.053 288.181ZM157.053 276.115C154.243 276.115 151.941 278.411 151.941 281.214C151.941 284.017 154.243 286.313 157.053 286.313C159.863 286.313 162.164 284.017 162.164 281.214C162.164 278.411 159.863 276.115 157.053 276.115Z" fill="#202D37"/>
<path d="M225.057 272.912C221.203 272.912 218.072 269.788 218.072 265.944C218.072 262.1 221.203 258.977 225.057 258.977C228.91 258.977 232.042 262.1 232.042 265.944C232.042 269.788 228.91 272.912 225.057 272.912ZM225.057 260.845C222.246 260.845 219.945 263.141 219.945 265.944C219.945 268.747 222.246 271.043 225.057 271.043C227.867 271.043 230.168 268.747 230.168 265.944C230.168 263.141 227.867 260.845 225.057 260.845Z" fill="#202D37"/>
<path d="M215.074 259.671C214.967 259.671 214.833 259.644 214.726 259.59C214.244 259.404 214.004 258.843 214.218 258.362C215.288 255.72 218.259 253.664 222.166 252.836C225.94 252.036 231.185 252.356 234.611 255.64C234.985 255.987 234.985 256.601 234.637 256.948C234.289 257.321 233.674 257.321 233.326 256.974C230.944 254.678 226.716 253.771 222.568 254.652C219.276 255.346 216.814 257.001 215.957 259.057C215.797 259.457 215.449 259.671 215.074 259.671Z" fill="#202D37"/>
<path d="M212.263 251.876C212.156 251.876 212.049 251.849 211.942 251.822C211.461 251.635 211.22 251.102 211.38 250.621C212.692 247.151 216.358 244.481 221.202 243.467C226.796 242.319 232.309 243.734 235.6 247.151C235.948 247.524 235.948 248.112 235.574 248.459C235.199 248.806 234.61 248.806 234.262 248.432C230.863 244.908 225.484 244.481 221.604 245.282C217.455 246.136 214.217 248.432 213.147 251.235C213.013 251.635 212.665 251.876 212.263 251.876Z" fill="#202D37"/>
<path d="M206.509 245.335C206.376 245.335 206.242 245.309 206.135 245.255C205.653 245.042 205.439 244.481 205.653 244.027C207.312 240.29 211.755 237.38 217.803 236.045C225.752 234.31 233.968 235.858 238.705 240.023C239.106 240.37 239.133 240.957 238.785 241.331C238.437 241.731 237.848 241.758 237.474 241.411C233.165 237.647 225.591 236.232 218.205 237.861C212.825 239.035 208.758 241.625 207.366 244.775C207.205 245.122 206.857 245.335 206.509 245.335Z" fill="#202D37"/>
<path d="M82.7334 112.124C82.5193 112.124 82.2784 112.071 82.0376 111.911C80.5389 111.083 75.7484 104.73 76.6851 101.847C78.2105 97.0948 91.8594 88.3921 99.1388 87.5378C99.7543 87.4577 100.718 87.7247 102.457 90.3676C103.314 91.6489 104.224 93.3308 104.357 94.2651C104.518 95.2262 103.903 95.6266 103.501 95.7067C101.628 96.1071 86.5337 108.254 83.563 111.751C83.3757 111.964 83.0813 112.124 82.7334 112.124ZM99.2191 89.4332C92.2073 90.3409 79.6557 98.6966 78.4514 102.461C77.9697 103.982 81.1544 108.814 82.5996 110.069C85.8378 106.705 98.4697 96.1071 102.404 94.185C101.922 92.8502 100.022 89.8603 99.2191 89.4332Z" fill="#202D37"/>
<path d="M75.9631 95.9466C75.8026 95.9466 75.642 95.8932 75.4814 95.8131C72.8855 94.3182 71.3065 90.821 71.4403 86.8968C71.5206 84.7078 72.1094 82.8124 73.1531 81.3708C69.1387 81.6378 62.796 81.5577 61.9128 78.2741C60.7621 74.0028 68.4697 71.8939 75.9364 69.8383C76.4181 69.7049 76.8998 69.5714 77.3548 69.4379C75.6955 63.8318 73.4742 57.7185 72.484 57.0245C72.1361 56.7575 71.5473 56.4372 70.8783 56.0367C68.0415 54.3282 63.2777 51.4985 62.689 47.7611C62.3143 45.3318 62.9834 43.3029 64.4821 42.3152C65.6596 41.5677 67.1315 41.5944 68.3626 42.3953C68.9782 42.7957 70.4768 43.65 72.2432 44.6644C79.5493 48.8556 83.1355 51.018 83.8045 52.0858C84.7412 53.5807 96.9449 84.8679 98.3098 88.4451C98.4972 88.9257 98.2563 89.4596 97.7746 89.6464C97.2928 89.8333 96.7576 89.593 96.5703 89.1125C91.191 75.2842 82.9214 54.2481 82.2256 53.0735C81.5565 52.1659 74.6518 48.1882 71.3332 46.2928C69.4866 45.225 68.0147 44.3975 67.3456 43.9703C66.7301 43.5699 66.0343 43.5432 65.499 43.8902C64.6426 44.4509 64.2679 45.7856 64.5356 47.4674C64.9905 50.3506 69.2725 52.9133 71.8417 54.435C72.5376 54.8621 73.1531 55.2092 73.5813 55.5295C75.6152 56.9978 78.5591 66.8751 79.4155 69.865C79.4958 70.1053 79.4423 70.3722 79.3352 70.5858C79.2014 70.7994 79.0141 70.9595 78.7732 71.0396C78.0239 71.2532 77.2477 71.4668 76.4181 71.6803C71.0924 73.1486 63.0369 75.3376 63.7059 77.8203C64.2412 79.8492 71.253 79.8759 75.8026 79.2619C76.2575 79.2085 76.6857 79.4754 76.8195 79.9026C76.9534 80.3297 76.7393 80.8102 76.3378 81.0238C74.5447 81.9047 73.3939 84.1471 73.2869 86.9769C73.1798 90.1536 74.4109 93.0635 76.3914 94.2114C76.8463 94.4783 76.9801 95.0389 76.7393 95.4928C76.6055 95.7864 76.2843 95.9466 75.9631 95.9466Z" fill="#202D37"/>
<path d="M77.5688 103.075C77.5153 103.075 77.4617 103.075 77.4082 103.048C75.3743 102.701 71.4134 100.485 68.1216 97.0948C65.2045 94.0782 61.7254 89.0594 61.8057 82.3054C61.8057 81.7982 62.2339 81.3711 62.7424 81.3711C63.2509 81.3711 63.6791 81.7982 63.6791 82.3054C63.5988 88.4187 66.7835 93.0103 69.4597 95.7867C72.6712 99.0969 76.2039 100.939 77.7026 101.206C78.2111 101.286 78.559 101.767 78.4787 102.274C78.3984 102.754 77.997 103.075 77.5688 103.075Z" fill="#202D37"/>
<path d="M70.3157 73.4155C69.9678 73.4155 69.6467 73.2286 69.4593 72.8816C67.4521 68.7705 66.1943 63.458 68.6029 60.8152C69.6467 59.694 71.7341 58.7062 75.9359 60.3347C76.4176 60.5215 76.6584 61.0554 76.4711 61.536C76.2838 62.0165 75.7485 62.2567 75.2668 62.0699C73.5005 61.3758 71.1454 60.8152 69.9946 62.0699C68.5762 63.6182 69.0311 67.7293 71.1454 72.054C71.3595 72.5078 71.1721 73.0684 70.7172 73.3087C70.5834 73.3888 70.4495 73.4155 70.3157 73.4155Z" fill="#202D37"/>
<path d="M64.589 75.8989C64.2946 75.8989 63.9734 75.7387 63.8129 75.4718C61.6719 72.2149 60.3873 67.3029 62.2606 64.6334C63.0367 63.5122 64.6693 62.3642 68.0681 63.1651C68.5766 63.2719 68.871 63.7791 68.7639 64.2863C68.6569 64.7935 68.1484 65.0872 67.6399 64.9804C65.7398 64.5266 64.4552 64.7668 63.7861 65.7012C62.5015 67.5432 63.572 71.7077 65.3651 74.4306C65.6595 74.8578 65.5257 75.4451 65.0975 75.712C64.9637 75.8455 64.7763 75.8989 64.589 75.8989Z" fill="#202D37"/>
<path d="M65.7931 84.0939C64.0803 84.0939 61.9393 83.2397 59.6109 81.5578C56.3191 79.1819 54.7134 74.4835 56.1853 71.4936C56.6938 70.4792 58.2996 68.2634 62.528 69.5181C63.0365 69.6516 63.3042 70.1855 63.1703 70.6927C63.0098 71.2 62.5013 71.4669 61.9928 71.3334C60.5476 70.9063 58.6475 70.7194 57.8446 72.3479C56.8812 74.2966 57.9249 78.0874 60.6814 80.0629C63.7859 82.3053 65.9001 82.5189 66.7565 82.0117C67.1847 81.7714 67.3721 81.2642 67.2918 80.5701C67.2382 80.0629 67.6129 79.6091 68.1214 79.5557C68.6299 79.5023 69.0848 79.876 69.1384 80.3832C69.2722 81.8248 68.7369 82.9994 67.6664 83.6401C67.1847 83.9337 66.5424 84.0939 65.7931 84.0939Z" fill="#202D37"/>
<path d="M11.8396 220.562C6.08567 220.562 4.93487 218.827 4.10524 215.57C3.0615 211.432 2.31215 206.306 0.920505 193.626C0.893742 193.306 0.866981 193.012 0.813456 192.718L0.65288 191.357C0.33173 188.394 0.0641072 186.071 0.0105823 184.202C-0.149993 178.783 1.48252 176.941 7.26321 176.034C23.7221 173.444 45.9082 171.469 54.2849 170.721C55.1145 170.641 55.8103 170.588 56.3456 170.534C61.0023 170.107 63.5715 171.709 64.9899 175.9C65.6054 177.715 66.0068 180.091 66.2745 183.215L66.3012 183.482C66.3548 183.989 65.9533 184.443 65.4448 184.496C64.9363 184.55 64.4814 184.149 64.4279 183.642L64.4011 183.375C64.1602 180.412 63.7588 178.169 63.1968 176.514C62.046 173.151 60.3064 172.083 56.4794 172.403C55.9441 172.456 55.2751 172.51 54.4187 172.59C46.0688 173.337 23.9095 175.286 7.53084 177.876C2.66007 178.65 1.72338 179.691 1.85719 184.149C1.91072 185.938 2.17834 188.26 2.49949 191.17L2.66007 192.531C2.68683 192.825 2.74035 193.145 2.76711 193.439C4.132 206.013 4.88135 211.085 5.89833 215.116C6.72796 218.346 7.18292 220.135 24.8729 217.252C25.3814 217.171 25.8631 217.519 25.9434 218.026C26.0237 218.533 25.6758 219.013 25.1673 219.094C19.0922 220.081 14.837 220.562 11.8396 220.562Z" fill="#202D37"/>
<path d="M65.3381 183.268C54.874 184.683 21.528 189.167 1.67022 191.97C1.29555 188.687 1.00116 186.151 0.947632 184.149C15.2923 182.52 52.3583 177.715 64.1071 176.193C64.6959 177.955 65.0973 180.251 65.3381 183.268Z" fill="#202D37"/>
<path d="M1.67005 192.371C1.58976 192.371 1.4827 192.344 1.42918 192.291C1.34889 192.237 1.29537 192.131 1.26861 192.024L1.18832 191.303C0.867169 188.367 0.599545 186.017 0.546021 184.175C0.546021 183.962 0.706592 183.802 0.893929 183.775C15.8542 182.066 56.1317 176.834 64.0266 175.82C64.2139 175.793 64.4013 175.9 64.4548 176.087C65.0436 177.849 65.4718 180.198 65.7126 183.268C65.7394 183.481 65.5788 183.668 65.3647 183.695L65.1239 183.722C54.3118 185.19 21.394 189.621 1.6968 192.398C1.72357 192.371 1.69681 192.371 1.67005 192.371ZM1.37566 184.522C1.45595 186.284 1.69681 188.473 2.01796 191.223L2.04472 191.543C21.7151 188.794 54.0174 184.416 64.9098 182.947C64.6689 180.305 64.321 178.249 63.8125 176.647C55.2485 177.742 16.4162 182.787 1.37566 184.522Z" fill="#202D37"/>
<path d="M11.3312 203.316C10.5818 203.316 9.96627 203.263 9.51131 203.183C9.21692 203.13 8.33376 202.916 8.03937 202.142C7.77175 201.394 7.34355 199.899 7.07592 198.565C6.5942 196.162 6.78154 195.361 7.20974 194.907C8.46757 193.573 16.0681 192.718 18.8246 192.959C19.9754 193.065 20.591 193.306 20.9121 193.813C21.715 195.014 23.0264 199.766 21.4741 201.368C20.4304 202.382 14.73 203.316 11.3312 203.316ZM9.72541 201.314C11.2241 201.902 19.0655 200.78 20.136 200.006C20.591 199.446 20.1093 196.162 19.4134 194.907C18.9049 194.721 16.978 194.64 13.9539 194.987C11.0635 195.335 9.19016 195.842 8.65491 196.109C8.57462 196.91 9.1634 199.659 9.72541 201.314ZM7.8788 195.495L8.54786 196.135L7.8788 195.495Z" fill="#202D37"/>
<path d="M137.543 256.467C137.061 256.467 136.633 256.093 136.606 255.586C136.499 253.798 136.365 252.036 136.232 250.3L136.125 248.939C136.098 248.432 136.473 247.978 136.981 247.951C137.49 247.925 137.944 248.298 137.971 248.806L138.078 250.167C138.212 251.902 138.346 253.664 138.453 255.479C138.48 255.987 138.105 256.44 137.57 256.467C137.597 256.467 137.57 256.467 137.543 256.467ZM136.687 243.146C136.178 243.146 135.777 242.746 135.75 242.238C135.696 241.09 135.67 240.049 135.67 239.088C135.67 237.754 135.723 236.579 135.803 235.458C135.83 234.95 136.285 234.55 136.82 234.603C137.329 234.63 137.73 235.084 137.677 235.618C137.597 236.686 137.543 237.807 137.543 239.088C137.543 240.023 137.57 241.037 137.597 242.185C137.623 242.692 137.222 243.146 136.687 243.146C136.713 243.146 136.687 243.146 136.687 243.146ZM138.185 230.012C138.052 230.012 137.918 229.985 137.811 229.932C137.329 229.718 137.142 229.158 137.356 228.704C138.105 227.049 139.149 225.741 140.433 224.806C140.969 224.406 141.664 224.032 142.467 223.685C142.949 223.471 143.484 223.712 143.698 224.165C143.913 224.646 143.672 225.18 143.217 225.393C142.548 225.687 141.986 225.981 141.531 226.301C140.487 227.075 139.657 228.116 139.042 229.478C138.881 229.798 138.533 230.012 138.185 230.012ZM149.292 223.685C148.837 223.685 148.462 223.365 148.382 222.911C148.302 222.404 148.623 221.923 149.131 221.816C151.085 221.469 153.36 221.149 155.849 220.882C156.357 220.829 156.812 221.202 156.866 221.709C156.919 222.217 156.544 222.671 156.036 222.724C153.601 222.964 151.379 223.285 149.479 223.632C149.399 223.685 149.345 223.685 149.292 223.685ZM162.619 222.27C162.138 222.27 161.71 221.896 161.683 221.389C161.656 220.882 162.057 220.428 162.566 220.401C165.777 220.215 168.347 220.161 169.31 220.161C169.31 220.161 169.31 220.161 169.337 220.161C169.845 220.161 170.274 220.562 170.274 221.069C170.274 221.576 169.872 222.003 169.364 222.03C168.427 222.057 165.885 222.083 162.7 222.27C162.646 222.27 162.619 222.27 162.619 222.27Z" fill="#202D37"/>
<path d="M280.936 310.205C280.455 310.205 280.053 309.858 280 309.378C279.946 308.87 280.321 308.39 280.829 308.337C283.077 308.07 285.299 307.803 287.466 307.509C287.975 307.429 288.457 307.803 288.51 308.31C288.59 308.817 288.216 309.298 287.707 309.351C285.54 309.645 283.292 309.912 281.043 310.179C281.017 310.179 280.99 310.205 280.936 310.205ZM294.237 308.443C293.782 308.443 293.381 308.123 293.301 307.642C293.22 307.135 293.568 306.655 294.077 306.575C296.539 306.201 298.76 305.827 300.66 305.453C301.169 305.347 301.651 305.694 301.758 306.201C301.865 306.708 301.517 307.189 301.008 307.295C299.081 307.669 296.86 308.043 294.371 308.417C294.344 308.443 294.291 308.443 294.237 308.443ZM307.378 305.774C306.976 305.774 306.628 305.534 306.495 305.133C306.334 304.653 306.602 304.119 307.083 303.959C307.431 303.852 307.752 303.718 308.02 303.611C309.626 302.944 310.669 301.876 311.312 300.248C311.499 299.767 312.034 299.527 312.516 299.714C312.998 299.901 313.239 300.435 313.051 300.915C312.222 303.051 310.83 304.492 308.743 305.347C308.421 305.48 308.074 305.614 307.672 305.747C307.565 305.747 307.458 305.774 307.378 305.774ZM313.051 294.935C312.543 294.935 312.115 294.535 312.115 294.001C312.088 292.239 311.954 290.077 311.686 287.434C311.633 286.927 312.008 286.473 312.516 286.419C313.025 286.366 313.48 286.74 313.533 287.247C313.801 289.943 313.961 292.159 313.961 294.001C313.988 294.508 313.587 294.935 313.051 294.935ZM311.82 281.641C311.365 281.641 310.964 281.294 310.884 280.84C310.616 278.838 310.322 276.676 310 274.38L309.974 274.246C309.893 273.739 310.268 273.259 310.777 273.205C311.285 273.125 311.767 273.499 311.82 274.006L311.847 274.14C312.168 276.435 312.463 278.598 312.73 280.627C312.811 281.134 312.436 281.614 311.927 281.668C311.901 281.641 311.874 281.641 311.82 281.641Z" fill="#202D37"/>
<path d="M163.556 328.598C161.014 328.572 158.739 328.438 156.758 328.198C156.25 328.145 155.875 327.664 155.956 327.157C156.009 326.65 156.491 326.276 156.999 326.356C158.899 326.596 161.094 326.73 163.556 326.756C164.065 326.756 164.493 327.184 164.493 327.691C164.493 328.171 164.065 328.598 163.556 328.598ZM170.22 328.385C169.738 328.385 169.31 328.011 169.283 327.504C169.256 326.997 169.658 326.543 170.166 326.516C171.638 326.436 173.217 326.303 174.877 326.169C175.385 326.116 175.84 326.516 175.894 327.023C175.947 327.531 175.546 327.984 175.037 328.038C173.378 328.198 171.772 328.305 170.273 328.385C170.273 328.385 170.247 328.385 170.22 328.385ZM150.442 326.543C150.309 326.543 150.175 326.516 150.068 326.463C147.606 325.368 145.866 323.82 144.742 321.711C144.501 321.257 144.662 320.697 145.117 320.456C145.572 320.216 146.134 320.376 146.375 320.83C147.311 322.539 148.756 323.82 150.817 324.754C151.299 324.968 151.513 325.528 151.299 325.982C151.138 326.329 150.79 326.543 150.442 326.543ZM143.912 315.785C143.431 315.785 143.029 315.411 142.976 314.93C142.842 313.382 142.788 311.754 142.735 310.018C142.708 309.431 142.708 308.817 142.681 308.203C142.655 307.696 143.056 307.242 143.591 307.242C144.1 307.215 144.555 307.616 144.555 308.15C144.581 308.764 144.581 309.378 144.608 309.965C144.662 311.673 144.715 313.275 144.822 314.77C144.876 315.277 144.474 315.731 143.966 315.785C143.966 315.785 143.939 315.785 143.912 315.785Z" fill="#202D37"/>
<path d="M26.1042 197.016C42.9913 190.449 65.1774 184.096 71.2257 182.44C77.2741 180.759 80.7532 178.676 83.8309 186.285C86.8818 193.893 91.3244 206.76 93.0639 210.577C94.8035 214.395 96.3557 217.652 86.5071 221.069C76.6585 224.486 55.1683 231.267 46.2831 235.057C37.398 238.848 34.3738 240.076 29.5566 228.864C24.7393 217.652 22.6251 211.405 20.832 205.932C19.0122 200.406 22.4645 198.431 26.1042 197.016Z" fill="#FBD931"/>
<path d="M70.5598 206.299C73.694 205.554 75.629 202.415 74.8818 199.289C74.1346 196.163 70.9881 194.232 67.8539 194.978C64.7197 195.723 62.7847 198.862 63.5319 201.988C64.2791 205.115 67.4256 207.045 70.5598 206.299Z" fill="white"/>
<path d="M69.2184 207.401C65.4984 207.401 62.4475 204.385 62.4475 200.647C62.4475 196.937 65.4717 193.893 69.2184 193.893C72.9652 193.893 75.9893 196.91 75.9893 200.647C75.9893 204.385 72.9384 207.401 69.2184 207.401ZM69.2184 195.762C66.5154 195.762 64.3209 197.951 64.3209 200.647C64.3209 203.344 66.5154 205.533 69.2184 205.533C71.9214 205.533 74.1159 203.344 74.1159 200.647C74.1159 197.951 71.9214 195.762 69.2184 195.762Z" fill="#202D37"/>
<path d="M77.3279 205.132C77.2476 205.132 77.1673 205.132 77.087 205.132C73.3671 204.998 70.4232 201.875 70.557 198.164C70.6908 194.453 73.822 191.517 77.542 191.65C81.262 191.784 84.2059 194.907 84.072 198.618C83.965 202.248 80.9408 205.132 77.3279 205.132ZM72.4304 198.191C72.3768 199.499 72.8586 200.727 73.7417 201.688C74.6249 202.649 75.856 203.183 77.1406 203.236C78.4519 203.29 79.683 202.809 80.6465 201.928C81.6099 201.047 82.1451 199.819 82.1987 198.538C82.279 195.842 80.1647 193.572 77.4617 193.492C74.7855 193.386 72.5107 195.521 72.4304 198.191Z" fill="#202D37"/>
<path d="M75.7755 213.648C75.4008 213.648 75.0261 213.407 74.8923 213.007C74.7317 212.526 74.9726 211.992 75.4811 211.806C80.2983 210.15 84.1521 208.869 84.1789 208.869C84.6606 208.709 85.1959 208.976 85.3565 209.456C85.517 209.937 85.2494 210.471 84.7677 210.631C84.7409 210.631 80.8871 211.912 76.0966 213.567C75.9896 213.621 75.8825 213.648 75.7755 213.648Z" fill="#202D37"/>
<path d="M63.3839 218.025C63.0092 218.025 62.6613 217.812 62.5275 217.438C62.3401 216.958 62.5542 216.424 63.036 216.21C64.3741 215.65 65.6319 215.142 66.7559 214.662C68.2546 214.048 69.9407 213.38 71.7338 212.66C72.2155 212.473 72.7507 212.713 72.9381 213.194C73.1254 213.674 72.8846 214.208 72.4028 214.395C70.6097 215.089 68.9505 215.783 67.4518 216.397C66.3277 216.851 65.0699 217.385 63.7318 217.945C63.6247 217.999 63.4909 218.025 63.3839 218.025Z" fill="#202D37"/>
<path d="M50.6719 223.418C50.2973 223.418 49.9761 223.205 49.8155 222.858C49.6014 222.377 49.8155 221.843 50.2973 221.63C52.92 220.482 55.8906 219.227 58.888 217.972C59.3697 217.759 59.905 217.999 60.1191 218.479C60.3332 218.96 60.0923 219.494 59.6106 219.707C56.6132 220.962 53.6693 222.244 51.0466 223.365C50.9128 223.391 50.779 223.418 50.6719 223.418Z" fill="#202D37"/>
<path d="M40.2615 228.116C39.9136 228.116 39.5924 227.93 39.4318 227.609C39.191 227.155 39.3783 226.595 39.86 226.354C41.4123 225.58 44.0885 224.352 47.8085 222.724C48.2902 222.51 48.8255 222.724 49.0396 223.204C49.2537 223.685 49.0396 224.219 48.5578 224.432C44.8646 226.034 42.2419 227.262 40.6897 228.01C40.5291 228.09 40.3953 228.116 40.2615 228.116Z" fill="#202D37"/>
</svg>
