<svg width="359" height="333" viewBox="0 0 359 333" fill="none" xmlns="http://www.w3.org/2000/svg">
<g filter="url(#filter0_d_401_2276)">
<path d="M239.489 318.759C225.747 321.183 210.664 322.771 194.101 323.356C177.956 323.941 162.901 323.607 148.908 322.464C38.0201 313.409 -6.36286 253.312 6.01074 185.441C9.977 163.709 20.563 145.683 35.3387 131.863C71.9567 97.6773 134.327 89.3467 185.973 114.729C208.541 125.817 227.395 132.393 243.986 137.352C253.315 140.138 261.946 142.423 270.074 144.735C285.492 149.11 299.234 153.568 312.977 161.647C320.462 166.05 327.948 171.538 335.713 178.671C374.258 214.027 358.477 297.751 239.489 318.759Z" fill="#D381BC"/>
<path d="M313.339 175.829C313.199 172.319 313.088 167.22 312.976 161.648C312.753 151.395 312.557 139.554 312.222 132.978C311.719 122.865 307.893 118.045 305.099 115.844C304.68 115.509 304.094 115.314 303.34 115.231V115.147C303.34 115.147 298.787 98.4022 296.832 99.9346C296.832 99.9346 293.368 88.4835 291.385 81.2395C289.402 73.9955 287.363 73.3826 287.363 71.7945C287.363 65.6928 284.374 67.3645 284.374 65.4142C284.374 63.4639 284.877 61.43 281.525 59.4797C280.883 59.1175 280.045 58.8946 279.095 58.8388C277.14 53.378 275.799 52.9043 272.922 52.9043C271.079 52.9043 268.286 53.4616 265.995 54.4367C265.074 52.5979 260.437 43.0971 253.231 21.8666C244.265 -4.51833 242.729 -1.53714 217.339 7.15567C190.357 16.3778 74.6934 55.1611 50.5607 64.634C26.4 74.107 32.8801 77.5339 47.1251 111.664C41.6506 113.531 36.0643 116.457 35.2543 118.685C34.5281 120.719 34.8074 126.598 35.3939 131.892C35.7012 134.65 36.1202 137.241 36.5112 139.08C37.6843 144.374 39.9468 156.967 39.7233 163.515C38.0195 163.125 38.9133 173.127 39.7233 185.47V188.674C39.7233 188.674 35.9805 191.655 36.595 198.369C37.4329 207.536 43.7454 214.083 46.3989 219.711C52.1528 231.887 62.9064 254.817 78.3524 268.971C93.7985 283.124 119.97 298.448 156.113 300.203L156.504 300.287C154.493 308.339 151.309 317.115 148.963 322.465C162.957 323.607 178.012 323.941 194.156 323.356C210.691 322.771 225.802 321.183 239.544 318.759L238.176 308.757C236.751 299.786 235.215 291.316 233.651 283.319C299.485 259.191 314.345 202.66 313.339 175.829ZM218.568 108.154C218.819 100.213 225.355 93.7494 233.176 93.7494C235.746 93.7494 238.148 94.4459 240.215 95.6718C241.36 93.7494 242.98 92.0777 245.019 90.9075C251.527 87.2019 259.851 89.9045 263.565 96.9256C267.308 103.947 265.074 112.64 258.566 116.345C254.069 118.908 248.734 118.407 244.628 115.565C242.03 119.744 237.422 122.53 232.282 122.53C224.461 122.53 218.317 116.094 218.568 108.154ZM62.4036 79.7907C63.5767 79.2335 64.8057 78.6763 66.0905 78.119C70.8389 76.0294 76.2576 73.9119 80.6428 72.2681C83.1566 71.3208 85.3353 70.5128 86.8994 69.9556C93.1002 67.671 94.9716 66.9744 97.6251 72.686C97.8764 73.2154 98.1278 73.7448 98.3513 74.2741C99.4127 76.6145 100.362 78.8434 101.144 80.8216C102.038 83.0784 102.764 85.0008 103.239 86.4496C104.273 89.4308 104.189 90.0159 95.4185 93.8329C93.7147 94.5852 92.0108 95.3096 90.335 96.034C85.6146 98.0958 81.0338 100.046 77.2631 101.578C75.4475 102.331 73.7996 102.972 72.4589 103.501C67.2636 105.451 66.3978 106.176 63.5488 100.548C63.0739 99.6003 62.5153 98.3744 61.9288 97.037C60.9232 94.6966 59.8339 92.022 59.0239 89.8766C58.5491 88.6786 58.186 87.6477 57.9625 86.9511C56.7335 83.3291 59.2753 81.2674 62.4036 79.7907ZM77.3748 181.179C73.1292 178.56 70.0568 178.309 66.8447 178.978C66.8447 178.978 65.476 174.659 64.5543 169.7C63.7722 165.521 63.5208 163.849 60.3367 164.016C64.4147 159.001 63.2415 151.116 59.9736 145.823C61.9846 148.637 63.5488 148.581 64.666 147.466C70.5316 163.097 74.3024 173.796 77.4027 181.179H77.3748ZM163.906 175.829C163.906 175.829 163.906 189.008 162.314 188.562C159.074 187.615 160.778 184.049 156.895 181.875C144.27 180.817 135.584 195.416 148.963 197.227C151.561 197.589 154.968 197.45 159.353 196.642C159.353 196.642 160.61 201.211 162.007 208.623C163.124 214.668 164.325 222.581 164.996 231.525C165.275 235.453 165.47 239.577 165.498 243.784C165.498 243.784 145.863 241.026 130.64 232.333C129.048 227.819 125.445 226.036 121.423 230.438C122.568 223.278 119.412 220.742 112.82 223.083C113.155 217.845 113.155 209.932 106.814 209.431C99.0216 208.818 92.7091 207.703 88.5474 194.608V194.58C92.7371 194.274 99.3847 191.989 110.501 186.5C119.803 181.903 137.399 174.966 157.761 167.443C165.47 164.601 173.57 161.676 181.782 158.75C178.347 166.886 170.414 174.994 163.906 175.829ZM269.04 181.82C268.007 194.246 257.393 213.08 221.585 233.837C220.244 229.296 218.931 225.033 217.646 221.049C208.764 193.689 201.418 180.343 201.418 180.343C201.418 180.343 216.78 168.641 217.562 166.162C218.289 163.765 206.334 158.862 186 157.302L185.972 157.218C206.641 149.918 227.59 142.758 244.013 137.325C255.828 133.396 265.297 130.359 270.632 128.743C270.381 131.112 270.241 137.269 270.101 144.708C269.85 157.692 269.654 174.492 269.04 181.82Z" fill="white"/>
<path d="M263.566 96.9264C267.309 103.947 265.074 112.64 258.566 116.346C254.069 118.909 248.734 118.408 244.629 115.566C245.997 113.393 246.807 110.857 246.891 108.127C247.059 102.805 244.349 98.1523 240.215 95.6726C241.361 93.7223 242.981 92.0785 245.02 90.9083C251.5 87.2306 259.823 89.9053 263.566 96.9264Z" fill="#FBD931"/>
<path d="M240.188 95.6716C244.349 98.1513 247.031 102.804 246.863 108.126C246.779 110.856 245.941 113.392 244.601 115.565C242.757 114.283 241.137 112.528 239.992 110.327C237.422 105.535 237.674 99.9066 240.188 95.6716Z" fill="white"/>
<path d="M244.601 115.566C242.003 119.745 237.394 122.531 232.255 122.531C224.434 122.531 218.317 116.095 218.569 108.127C218.82 100.186 225.356 93.7222 233.177 93.7222C235.746 93.7222 238.148 94.4187 240.187 95.6446C237.674 99.8796 237.422 105.508 239.992 110.3C241.165 112.529 242.757 114.284 244.601 115.566Z" fill="white"/>
<path d="M103.24 86.3947C102.737 84.9459 102.039 83.0234 101.117 80.7666C100.335 78.7885 99.3854 76.5874 98.324 74.2192C98.1005 73.6898 97.8491 73.1604 97.5978 72.6311C94.9722 66.9473 93.1008 67.616 86.8721 69.9006C85.3359 70.4579 83.1293 71.2658 80.6155 72.2131C76.2023 73.8848 70.8116 75.9744 66.0632 78.0641C64.7784 78.6213 63.5215 79.2064 62.3763 79.7358C59.248 81.2124 56.7342 83.2742 57.9073 86.8405C58.1307 87.537 58.5218 88.5679 58.9687 89.7659C59.7787 91.9113 60.868 94.586 61.8735 96.9263C62.4601 98.2637 63.0187 99.5175 63.4935 100.437C66.3425 106.065 67.2084 105.341 72.4037 103.39C73.7723 102.889 75.3923 102.22 77.2358 101.468C81.0065 99.9354 85.5873 97.9572 90.3077 95.9233C91.9836 95.1989 93.6874 94.4467 95.3912 93.7223C104.19 89.961 104.273 89.3759 103.24 86.3947Z" fill="#FBD931"/>
<path d="M182.034 178.253C181.364 178.531 180.554 178.225 180.274 177.528L178.962 174.38C178.682 173.711 178.989 172.903 179.688 172.625C180.358 172.346 181.168 172.653 181.447 173.349L182.76 176.498C183.04 177.194 182.704 177.974 182.034 178.253Z" fill="#202D37"/>
<path d="M190.498 173.099C189.827 173.378 189.017 173.071 188.738 172.375L187.425 169.226C187.146 168.558 187.453 167.75 188.151 167.471C188.822 167.192 189.632 167.499 189.911 168.195L191.224 171.344C191.503 172.04 191.168 172.82 190.498 173.099Z" fill="#202D37"/>
<path d="M238.12 309.732C237.646 309.732 237.227 309.397 237.143 308.896C230.02 264.122 220.44 231.664 213.652 212.3C206.307 191.376 200.609 180.9 200.553 180.789C200.329 180.371 200.441 179.841 200.804 179.535C208.122 173.99 215.915 167.415 216.585 165.91C216.39 165.437 214.574 163.877 208.457 162.038C202.452 160.255 194.436 158.917 185.917 158.249C185.386 158.221 184.967 157.747 185.023 157.19C185.051 156.66 185.526 156.242 186.084 156.298C204.156 157.691 216.11 161.675 218.177 164.712C218.652 165.409 218.624 166.022 218.513 166.412C217.758 168.864 206.949 177.334 202.675 180.593C204.1 183.352 209.211 193.688 215.524 211.631C222.339 231.051 231.948 263.649 239.098 308.562C239.182 309.091 238.819 309.592 238.288 309.676C238.232 309.732 238.176 309.732 238.12 309.732Z" fill="#202D37"/>
<path d="M165.498 244.759C165.442 244.759 165.415 244.759 165.359 244.759C165.163 244.731 145.36 241.861 130.137 233.196C129.942 233.085 129.774 232.89 129.69 232.667C128.964 230.577 127.763 229.212 126.45 228.933C125.165 228.683 123.657 229.407 122.121 231.107C121.842 231.413 121.367 231.524 120.976 231.329C120.585 231.134 120.361 230.716 120.445 230.299C120.948 227.15 120.585 224.949 119.356 223.946C117.847 222.692 115.138 223.305 113.127 224.03C112.624 224.225 112.066 223.946 111.87 223.445C111.702 222.943 111.954 222.386 112.457 222.191C116.088 220.909 118.825 220.993 120.613 222.469C121.981 223.612 122.652 225.506 122.624 228.097C124.355 226.927 125.836 226.844 126.869 227.039C128.824 227.429 130.444 229.073 131.45 231.692C144.215 238.88 160.191 241.945 164.521 242.669C164.325 229.128 162.538 216.841 161.057 208.817C160.052 203.356 159.074 199.428 158.655 197.784C154.801 198.425 151.505 198.592 148.851 198.23C144.103 197.589 142.315 195.472 141.673 193.828C140.779 191.571 141.449 188.841 143.516 186.361C146.142 183.185 151.644 179.925 158.599 181.179C159.13 181.262 159.493 181.792 159.381 182.321C159.298 182.85 158.767 183.213 158.236 183.101C152.147 181.987 147.315 184.828 145.025 187.615C143.46 189.509 142.874 191.571 143.488 193.131C144.159 194.803 146.086 195.917 149.103 196.307C151.756 196.67 155.164 196.475 159.186 195.722C159.689 195.639 160.163 195.945 160.303 196.419C160.303 196.475 161.588 201.1 162.984 208.483C164.521 216.814 166.392 229.686 166.504 243.811C166.504 244.09 166.392 244.369 166.169 244.564C165.973 244.675 165.75 244.759 165.498 244.759Z" fill="#202D37"/>
<path d="M112.598 227.122C112.57 227.122 112.57 227.122 112.542 227.122C112.011 227.095 111.592 226.621 111.62 226.092C111.648 225.674 111.676 225.2 111.732 224.643C112.29 217.482 112.095 210.823 106.732 210.378C98.2129 209.709 91.8445 208.204 87.6269 194.859C87.4593 194.357 87.7386 193.8 88.2693 193.633C88.7721 193.466 89.3307 193.744 89.4983 194.274C93.3807 206.477 98.9112 207.787 106.9 208.427C114.916 209.068 114.078 219.683 113.687 224.782C113.659 225.311 113.603 225.785 113.575 226.175C113.519 226.732 113.1 227.122 112.598 227.122Z" fill="#202D37"/>
<path d="M156.086 301.178C156.058 301.178 156.058 301.178 156.03 301.178C115.558 299.2 89.5537 280.589 77.6549 269.695C62.1251 255.485 51.3715 232.611 45.5618 220.324L45.478 220.157C44.6959 218.513 43.5787 216.758 42.3776 214.863C39.4728 210.294 36.1768 205.112 35.5624 198.481C35.0317 192.518 37.6851 189.286 38.6907 188.283V185.469C38.6907 185.191 38.8024 184.94 38.9979 184.773C39.1934 184.578 39.4448 184.494 39.7241 184.494C46.1484 184.801 58.0471 180.761 62.5441 179.228C67.7952 177.445 71.6776 176.553 77.8784 180.371C78.3253 180.649 78.4929 181.262 78.2136 181.708C77.9343 182.154 77.3198 182.321 76.8729 182.042C71.2866 178.615 68.0186 179.451 63.1865 181.095C58.4102 182.711 47.5728 186.389 40.6738 186.472V188.701C40.6738 189.008 40.5341 189.286 40.3107 189.453C40.171 189.565 36.9869 192.24 37.5455 198.286C38.1041 204.443 41.2604 209.43 44.0535 213.804C45.2825 215.727 46.4277 217.538 47.2656 219.293L47.3494 219.46C53.0753 231.636 63.7451 254.259 78.9957 268.246C90.6989 278.973 116.284 297.278 156.142 299.228C156.673 299.256 157.092 299.702 157.064 300.259C157.036 300.76 156.589 301.178 156.086 301.178Z" fill="#202D37"/>
<path d="M148.517 324.359C148.377 324.359 148.238 324.331 148.126 324.276C147.623 324.053 147.428 323.468 147.651 322.994C151.226 315.137 156.757 299.145 157.343 289.727C157.371 289.198 157.846 288.78 158.377 288.808C158.908 288.836 159.327 289.309 159.299 289.839C158.712 299.618 153.182 315.583 149.439 323.802C149.243 324.136 148.88 324.359 148.517 324.359Z" fill="#202D37"/>
<path d="M174.186 232.834C170.946 232.834 167.818 232.723 164.913 232.5C164.382 232.472 163.963 231.998 164.019 231.469C164.047 230.939 164.522 230.521 165.052 230.577C175.108 231.302 185.554 230.828 194.52 229.212C204.38 227.429 212.145 224.364 217.005 220.352C217.424 220.018 218.038 220.073 218.374 220.491C218.709 220.909 218.653 221.522 218.234 221.856C208.374 230.02 189.967 232.834 174.186 232.834Z" fill="#202D37"/>
<path d="M201.977 255.346C198.513 255.346 178.989 246.123 170.051 240.245C169.604 239.938 169.465 239.353 169.772 238.879C170.079 238.434 170.666 238.294 171.141 238.601C180.833 245.009 199.631 253.395 201.865 253.395C202.508 253.089 204.77 250.553 209.518 242.919C212.786 237.654 215.943 231.97 216.725 229.964C216.92 229.462 217.479 229.211 217.982 229.407C218.484 229.602 218.736 230.159 218.54 230.66C217.702 232.834 214.35 238.824 210.943 244.285C204.239 255.039 202.759 255.234 202.144 255.318C202.116 255.346 202.033 255.346 201.977 255.346Z" fill="#202D37"/>
<path d="M202.284 254.371C206.445 253.758 207.283 259.331 203.01 260.139C198.736 260.919 198.764 254.873 202.284 254.371Z" fill="white"/>
<path d="M202.256 261.169C200.804 261.169 199.966 260.473 199.575 259.971C198.709 258.94 198.486 257.324 199.044 255.931C199.575 254.538 200.748 253.591 202.173 253.396C204.798 253.006 206.502 254.65 206.781 256.489C207.088 258.383 205.971 260.584 203.206 261.086C202.871 261.141 202.536 261.169 202.256 261.169ZM202.424 255.346C201.446 255.486 201.027 256.21 200.86 256.656C200.58 257.408 200.664 258.272 201.083 258.773C201.446 259.219 202.033 259.358 202.843 259.191C204.463 258.885 205.022 257.798 204.854 256.823C204.714 255.987 203.988 255.123 202.424 255.346Z" fill="#202D37"/>
<path d="M162.007 208.623C156.393 216.758 144.466 222.414 139.047 215.086C134.662 209.18 140.64 201.406 148.963 197.227C151.561 197.589 154.968 197.45 159.354 196.642C159.354 196.642 160.61 201.211 162.007 208.623Z" fill="#202D37"/>
<path d="M145.947 219.46C142.734 219.46 140.081 218.151 138.237 215.671C136.701 213.609 136.226 211.158 136.841 208.622C137.93 204.136 142.399 199.428 148.516 196.391C148.684 196.307 148.879 196.279 149.075 196.307C151.728 196.67 155.136 196.474 159.158 195.722C159.661 195.639 160.136 195.945 160.275 196.419C160.275 196.474 161.56 201.099 162.957 208.483C163.013 208.734 162.957 209.012 162.789 209.207C158.683 215.17 151.84 219.377 146.114 219.488C146.086 219.46 146.03 219.46 145.947 219.46ZM149.131 198.23C143.74 200.988 139.662 205.223 138.74 209.04C138.265 211.046 138.629 212.885 139.83 214.501C141.31 216.479 143.349 217.51 145.947 217.51C146.002 217.51 146.058 217.51 146.114 217.51C151.03 217.426 157.231 213.609 160.974 208.399C159.996 203.133 159.046 199.372 158.655 197.756C154.94 198.397 151.756 198.564 149.131 198.23Z" fill="#202D37"/>
<path d="M148.935 190.791C148.572 190.791 148.237 190.596 148.069 190.262C147.818 189.788 148.013 189.203 148.488 188.952C151.365 187.448 155.918 187.197 156.868 187.253C157.398 187.28 157.817 187.754 157.761 188.283C157.734 188.813 157.259 189.231 156.728 189.175C155.778 189.119 151.728 189.426 149.382 190.652C149.242 190.763 149.103 190.791 148.935 190.791Z" fill="#202D37"/>
<path d="M181.754 158.722C178.374 166.858 170.442 174.994 163.906 175.829C163.906 175.829 163.906 189.008 162.314 188.562C159.046 187.615 160.805 183.993 156.783 181.82C155.945 181.374 156.308 173.879 157.733 167.415C165.442 164.573 173.542 161.648 181.754 158.722Z" fill="#202D37"/>
<path d="M162.398 189.537C162.286 189.537 162.147 189.51 162.035 189.482C159.968 188.869 159.437 187.392 158.963 186.055C158.516 184.801 158.069 183.603 156.337 182.656C155.89 182.405 155.136 182.015 155.443 176.777C155.611 173.712 156.114 170.229 156.784 167.165C156.868 166.83 157.091 166.58 157.398 166.468C164.688 163.766 172.761 160.868 181.419 157.775C181.782 157.636 182.201 157.747 182.453 158.026C182.732 158.305 182.788 158.723 182.648 159.085C179.548 166.58 171.979 175.161 164.884 176.638C164.884 177.724 164.828 179.758 164.716 181.82C164.381 187.866 163.739 188.813 163.18 189.259C162.929 189.454 162.677 189.537 162.398 189.537ZM157.482 181.095C159.689 182.377 160.303 184.049 160.806 185.414C161.197 186.445 161.42 187.058 162.091 187.42C162.622 185.804 162.929 180.427 162.929 175.83C162.929 175.328 163.292 174.938 163.795 174.854C169.13 174.158 176.14 167.778 179.883 160.422C172.258 163.153 165.107 165.744 158.571 168.14C157.343 174.074 157.119 179.87 157.482 181.095Z" fill="#202D37"/>
<path d="M221.584 234.812C221.249 234.812 220.914 234.645 220.746 234.338C220.467 233.865 220.635 233.279 221.109 233.001C260.13 210.377 267.308 191.181 268.09 181.763C268.593 175.578 268.816 162.483 269.012 150.893C269.179 140.584 269.319 131.696 269.654 128.659C269.71 128.13 270.185 127.74 270.716 127.796C271.246 127.851 271.637 128.325 271.581 128.854C271.274 131.808 271.107 141.086 270.967 150.921C270.771 162.511 270.548 175.662 270.045 181.903C269.207 191.71 261.889 211.603 222.087 234.673C221.92 234.756 221.752 234.812 221.584 234.812Z" fill="#202D37"/>
<path d="M233.595 284.294C233.204 284.294 232.813 284.043 232.674 283.653C232.478 283.152 232.757 282.594 233.26 282.399C262.085 271.84 283.788 254.259 297.698 230.103C312.25 204.889 312.585 182.209 312.362 175.885C312.194 171.566 312.055 164.879 311.915 157.803C311.719 148.441 311.524 138.773 311.245 133.034C310.77 123.477 307.306 118.824 304.485 116.623C302.614 115.147 294.011 117.236 288.285 118.601C286.833 118.964 285.464 119.27 284.207 119.549C283.676 119.66 283.146 119.326 283.034 118.796C282.922 118.267 283.257 117.738 283.788 117.626C285.017 117.348 286.386 117.013 287.838 116.679C296.748 114.534 303.256 113.168 305.686 115.063C308.842 117.515 312.669 122.613 313.2 132.922C313.479 138.69 313.675 148.385 313.87 157.747C314.01 164.824 314.149 171.483 314.317 175.801C314.568 182.293 314.205 205.418 299.402 231.078C292.922 242.334 284.57 252.337 274.627 260.862C263.147 270.698 249.46 278.554 233.931 284.238C233.819 284.266 233.707 284.294 233.595 284.294Z" fill="#202D37"/>
<path d="M190.022 202.381C186.921 204.972 183.095 206.755 180.134 205.613C176.95 204.387 174.436 201.183 173.011 197.867C171.503 194.329 171.224 190.623 172.732 189.035C174.967 186.611 178.318 191.32 184.324 191.571C189.519 191.794 194.128 190.902 195.412 192.825C196.641 194.691 193.876 199.177 190.022 202.381Z" fill="#202D37"/>
<path d="M182.117 206.922C181.307 206.922 180.525 206.783 179.799 206.504C176.699 205.306 173.822 202.214 172.118 198.229C170.33 194.078 170.302 190.177 172.006 188.339C173.682 186.528 175.749 187.531 177.9 188.589C179.603 189.425 181.754 190.484 184.352 190.595C185.832 190.651 187.229 190.623 188.597 190.595C192.173 190.512 195.022 190.456 196.223 192.295C197.871 194.775 194.686 199.734 190.636 203.105C187.676 205.613 184.687 206.922 182.117 206.922ZM174.269 189.314C173.933 189.314 173.682 189.453 173.459 189.676C172.313 190.902 172.509 194.19 173.933 197.477C175.442 200.988 177.9 203.69 180.525 204.693C182.76 205.557 186.084 204.415 189.435 201.629C193.569 198.174 195.301 194.385 194.631 193.382C194.016 192.462 191.418 192.49 188.681 192.574C187.368 192.601 185.86 192.629 184.324 192.574C181.307 192.434 178.961 191.292 177.09 190.372C175.637 189.648 174.827 189.314 174.269 189.314Z" fill="#202D37"/>
<path d="M190.022 202.381C186.922 204.972 183.095 206.755 180.134 205.613C176.95 204.387 174.436 201.183 173.012 197.868C178.542 196.307 185.637 197.06 190.022 202.381Z" fill="white"/>
<path d="M182.117 206.922C181.307 206.922 180.525 206.783 179.799 206.504C176.699 205.306 173.822 202.213 172.118 198.229C172.006 197.978 172.006 197.672 172.146 197.421C172.258 197.17 172.481 196.975 172.76 196.892C178.263 195.332 185.888 195.805 190.776 201.712C191.111 202.13 191.055 202.743 190.636 203.077C187.676 205.612 184.687 206.922 182.117 206.922ZM174.408 198.536C175.917 201.545 178.151 203.801 180.497 204.721C182.564 205.501 185.553 204.609 188.597 202.269C184.631 198.118 178.933 197.56 174.408 198.536Z" fill="#202D37"/>
<path d="M303.368 116.122C302.949 116.122 302.53 115.843 302.418 115.398C300.743 109.296 298.34 102.331 297.139 100.965C291.134 105.646 286.107 107.485 279.794 107.262C279.263 107.234 278.844 106.788 278.844 106.259C278.872 105.73 279.319 105.312 279.85 105.312C285.743 105.507 290.492 103.724 296.218 99.1823C296.609 98.8758 297.084 98.7922 297.558 98.9315C298.48 99.238 299.681 100.464 302.027 107.457C303.284 111.163 304.29 114.84 304.29 114.896C304.43 115.426 304.122 115.955 303.592 116.094C303.536 116.094 303.452 116.122 303.368 116.122Z" fill="#202D37"/>
<path d="M296.86 100.91C296.441 100.91 296.05 100.631 295.938 100.213C295.91 100.102 292.447 88.6785 290.492 81.4902C289.318 77.1438 288.145 75.3328 287.363 74.1348C286.833 73.3268 286.442 72.686 286.442 71.7944C286.442 68.451 285.548 67.9217 284.822 67.5037C284.263 67.1694 283.453 66.6958 283.453 65.442C283.453 65.1912 283.453 64.9683 283.481 64.7176C283.537 63.0738 283.565 61.7643 281.107 60.3433C280.632 60.0647 279.934 59.8975 279.068 59.8139C275.101 59.4796 268.873 61.4021 266.582 62.8787C265.046 63.8817 264.069 65.4698 263.65 67.7545C263.51 68.5346 263.426 69.3705 263.398 70.4013C263.342 72.6024 263.398 72.6303 264.739 73.3268C265.214 73.5776 265.409 74.1626 265.158 74.6363C264.906 75.1099 264.32 75.305 263.845 75.0542C261.75 73.9955 261.359 73.1875 261.443 70.3456C261.471 69.2033 261.583 68.256 261.75 67.3923C262.281 64.6061 263.538 62.5165 265.549 61.2349C268.035 59.6468 274.738 57.4736 279.235 57.8636C280.38 57.9472 281.358 58.2258 282.084 58.6438C285.576 60.6498 285.492 62.9344 285.436 64.7733C285.436 64.9962 285.436 65.2191 285.436 65.442C285.436 65.5256 285.436 65.5534 285.436 65.5534C285.464 65.6092 285.687 65.7206 285.827 65.8042C287.14 66.5843 288.425 67.6709 288.425 71.7944C288.425 72.1009 288.62 72.4074 289.039 73.076C289.821 74.3019 291.134 76.3358 292.419 80.9887C294.374 88.1491 297.838 99.5445 297.866 99.656C298.033 100.185 297.726 100.715 297.223 100.882C297.028 100.91 296.944 100.91 296.86 100.91Z" fill="#202D37"/>
<path d="M266.834 81.964C266.75 81.964 266.639 81.964 266.555 81.9083C264.348 81.2396 262.142 79.6515 262.477 77.1718C262.616 76.141 262.896 75.0265 263.315 73.8563C264.153 71.4045 265.354 69.2034 266.108 68.2004C267.477 66.3616 270.409 65.6093 276.554 65.47C277.113 65.4421 277.532 65.8879 277.56 66.4173C277.56 66.9467 277.141 67.3924 276.61 67.4203C269.934 67.5596 268.342 68.479 267.7 69.3706C267.03 70.2622 265.912 72.3518 265.186 74.4693C264.823 75.528 264.572 76.531 264.432 77.4226C264.209 79.0386 266.639 79.8744 267.141 80.0137C267.644 80.1809 267.951 80.7103 267.784 81.2396C267.644 81.7133 267.253 81.964 266.834 81.964Z" fill="#202D37"/>
<path d="M272.365 91.6598C271.862 91.6598 271.332 91.5483 270.773 91.3254C268.064 90.2388 265.634 86.5611 265.215 84.5829C264.488 81.2395 269.404 74.302 269.432 74.2184C270.27 73.104 272.616 72.686 276.583 72.9089C277.113 72.9368 277.532 73.4104 277.504 73.9398C277.476 74.4692 277.002 74.8871 276.471 74.8592C271.723 74.5806 270.996 75.3886 270.996 75.3886C269.907 76.8374 266.695 82.1868 267.114 84.165C267.421 85.5302 269.404 88.6786 271.471 89.4866C272.393 89.8488 272.924 89.598 273.259 89.3751C273.706 89.0686 274.32 89.1801 274.627 89.6259C274.935 90.0716 274.823 90.6846 274.376 90.9911C273.789 91.4647 273.091 91.6598 272.365 91.6598Z" fill="#202D37"/>
<path d="M279.598 103.501C279.459 103.501 279.291 103.473 279.151 103.389C272.336 99.8508 272.252 89.9878 273.872 84.2204C274.012 83.6911 274.571 83.4124 275.074 83.5518C275.604 83.6911 275.884 84.2483 275.744 84.7498C274.291 89.9042 274.236 98.6527 280.017 101.662C280.492 101.913 280.688 102.498 280.436 102.971C280.297 103.306 279.961 103.501 279.598 103.501Z" fill="#202D37"/>
<path d="M39.6965 186.416C39.1937 186.416 38.7468 186.026 38.7189 185.497C38.6351 184.02 38.5234 182.544 38.4396 181.151C37.5737 168.251 37.4061 163.96 38.7189 162.846C39.0541 162.567 39.4731 162.456 39.92 162.539C40.311 162.623 40.7579 162.818 41.3445 163.041C43.6348 163.988 47.9363 165.743 55.4498 163.904C59.3602 162.957 61.6226 162.623 63.1309 163.598C64.5834 164.545 64.9185 166.328 65.4772 169.254L65.533 169.504C66.4268 174.325 67.7955 178.615 67.7955 178.671C67.9631 179.172 67.6837 179.73 67.153 179.897C66.6503 180.064 66.0917 179.785 65.9241 179.256C65.8682 179.089 64.5275 174.826 63.6058 169.867L63.5499 169.616C63.103 167.276 62.8237 165.715 62.0695 165.242C61.1757 164.657 58.9692 165.047 55.8967 165.799C47.7407 167.777 42.9086 165.799 40.5624 164.852C40.311 164.74 40.0875 164.657 39.892 164.573C39.3893 166.495 39.892 174.185 40.3669 181.011C40.4507 182.432 40.5624 183.881 40.6462 185.358C40.6741 185.887 40.2831 186.361 39.7244 186.389C39.7244 186.416 39.6965 186.416 39.6965 186.416Z" fill="#202D37"/>
<path d="M39.6959 164.462H39.668C39.1373 164.434 38.7183 163.989 38.7183 163.459C38.9418 157.023 36.6793 144.374 35.5342 139.275C34.389 134.121 33.0762 121.75 34.3052 118.351C35.6179 114.674 46.5391 110.216 52.9913 109.101C57.8513 108.266 62.5996 111.33 64.6107 114.646C66.1749 117.237 66.1469 119.884 64.5548 121.973C64.2197 122.391 63.6052 122.475 63.1862 122.141C62.7672 121.806 62.6834 121.193 63.0186 120.775C64.499 118.853 63.6052 116.735 62.9348 115.649C61.231 112.863 57.181 110.355 53.3264 111.024C46.4832 112.194 37.0145 116.624 36.1486 119.02C35.171 121.778 36.2324 133.424 37.4614 138.857C38.3831 142.981 40.9249 156.41 40.6735 163.543C40.6456 164.044 40.2266 164.462 39.6959 164.462Z" fill="#202D37"/>
<path d="M64.6661 129.607C64.303 129.607 63.9399 129.384 63.7723 129.05C63.5488 128.548 63.7723 127.991 64.2471 127.768C64.3309 127.74 65.113 127.294 65.113 126.263C65.0851 125.233 62.0126 120.301 59.9457 119.187C58.1581 118.212 51.8735 118.267 44.4717 120.023C43.941 120.134 43.4103 119.827 43.2986 119.298C43.1869 118.769 43.4941 118.239 44.0248 118.128C50.2535 116.651 58.0464 115.955 60.8674 117.487C63.3812 118.852 67.0403 124.341 67.0403 126.263C67.0682 128.13 65.7833 129.217 65.0571 129.551C64.9454 129.579 64.8058 129.607 64.6661 129.607Z" fill="#202D37"/>
<path d="M60.3377 164.991C60.1142 164.991 59.8908 164.907 59.7232 164.768C59.3042 164.434 59.2483 163.821 59.5835 163.403C63.857 158.165 61.9018 148.803 57.349 143.927C56.9859 143.537 57.0138 142.924 57.4049 142.562C57.7959 142.2 58.4104 142.228 58.7735 142.618C63.9129 148.079 66.1195 158.499 61.1197 164.656C60.8963 164.851 60.617 164.991 60.3377 164.991Z" fill="#202D37"/>
<path d="M65.0857 137.686C64.7784 137.686 64.4991 137.547 64.3036 137.296C63.9684 136.878 64.0522 136.265 64.4991 135.931C64.527 135.931 66.5102 134.371 66.2588 132.448C66.0912 131.139 60.7842 125.817 58.8849 125.371C57.2649 124.981 53.55 125.371 48.9413 127.099C48.4386 127.294 47.8799 127.043 47.6844 126.542C47.4889 126.04 47.7403 125.483 48.243 125.288C52.6841 123.616 56.9576 122.92 59.3318 123.505C61.7339 124.062 67.8788 129.829 68.186 132.253C68.5771 135.318 65.7839 137.435 65.6722 137.547C65.5046 137.63 65.3091 137.686 65.0857 137.686Z" fill="#202D37"/>
<path d="M63.1299 149.138C61.6216 149.138 60.1413 147.94 58.6051 145.488C58.3257 145.042 58.4654 144.429 58.9123 144.151C59.3592 143.872 59.9737 144.011 60.253 144.457C61.3982 146.324 62.4875 147.299 63.2696 147.16C64.2751 146.992 65.2527 144.931 65.6438 143.036C66.1465 140.556 66.2583 138.885 62.3199 135.764C57.9626 132.309 56.8454 132.755 53.1864 134.204L52.6557 134.427C52.1529 134.622 51.5943 134.371 51.3988 133.87C51.2032 133.368 51.4546 132.811 51.9574 132.616L52.4881 132.393C56.6219 130.749 58.5213 130.248 63.5489 134.232C68.2693 137.965 68.1855 140.501 67.571 143.426C67.4034 144.29 66.37 148.581 63.6048 149.082C63.4651 149.11 63.2975 149.138 63.1299 149.138Z" fill="#202D37"/>
<path d="M67.6557 105.841C65.7843 105.841 64.4994 104.559 62.656 100.937C60.8404 97.3431 57.8518 89.7648 56.9859 87.2015C55.2821 82.1028 60.3097 79.7067 61.9577 78.9266C69.6388 75.2767 80.7275 71.1811 86.0624 69.2029L86.5652 69.0079C92.6822 66.7511 95.5033 65.7202 98.5198 72.2398C101.732 79.1495 103.659 84.5825 104.162 86.087C104.665 87.508 105.168 88.9846 103.687 90.4613C102.542 91.6315 100.14 92.8017 95.8105 94.6684C87.0121 98.4854 78.0182 102.414 72.795 104.364C72.5157 104.476 72.2364 104.559 71.985 104.671C70.1416 105.367 68.8009 105.841 67.6557 105.841ZM58.8573 86.5885C59.6673 89.0403 62.6559 96.6187 64.4156 100.074C65.6725 102.553 66.4546 103.612 67.2088 103.863C68.0188 104.113 69.3036 103.64 71.2868 102.888C71.5381 102.776 71.8174 102.693 72.0968 102.581C77.2641 100.631 86.258 96.7301 95.0284 92.9131C98.9388 91.2136 101.397 90.0434 102.319 89.1239C102.849 88.5946 102.849 88.2602 102.346 86.7557C101.844 85.2791 99.9443 79.9296 96.7602 73.1036C95.3915 70.1781 94.4698 69.4537 93.4643 69.3144C92.1515 69.0915 90.1963 69.8159 87.2635 70.9025L86.7607 71.0975C81.4538 73.0478 70.4209 77.1156 62.8235 80.7376C59.2204 82.3814 58.0473 84.1367 58.8573 86.5885Z" fill="#202D37"/>
<path d="M77.2638 102.525C77.18 102.525 77.1242 102.525 77.0404 102.497C76.5097 102.386 76.2024 101.856 76.3142 101.327C77.7945 95.0582 74.8617 83.5235 65.6723 78.982C65.1975 78.7313 65.002 78.1462 65.2254 77.6725C65.4768 77.1989 66.0633 77.0039 66.5382 77.2268C71.0351 79.4557 74.6662 83.4956 76.789 88.65C78.6045 93.08 79.1352 97.9836 78.2414 101.773C78.1018 102.219 77.7107 102.525 77.2638 102.525Z" fill="#202D37"/>
<path d="M90.3355 96.9527C89.8886 96.9527 89.4976 96.6741 89.3859 96.2284C86.7603 86.0032 83.2689 77.4775 79.8612 72.8247C79.554 72.3789 79.6378 71.7659 80.0847 71.4594C80.5316 71.153 81.1461 71.2365 81.4533 71.6823C86.481 78.5641 90.0003 90.8232 91.2852 95.7547C91.4248 96.2841 91.1176 96.8134 90.5869 96.9527C90.4752 96.9527 90.4193 96.9527 90.3355 96.9527Z" fill="#202D37"/>
<path d="M58.9968 90.7955C58.6058 90.7955 58.2427 90.5726 58.103 90.2104C57.8795 89.7089 58.1309 89.1517 58.6058 88.9288C66.9852 85.3346 92.9055 75.1652 97.989 73.2985C98.4918 73.1034 99.0504 73.382 99.2459 73.8835C99.4414 74.3851 99.1621 74.9423 98.6593 75.1373C93.6038 76.9762 67.7393 87.1457 59.3599 90.7119C59.2761 90.7677 59.1365 90.7955 58.9968 90.7955Z" fill="#202D37"/>
<path d="M61.9298 97.9558C61.5667 97.9558 61.2035 97.7329 61.036 97.3707C60.8125 96.8691 61.036 96.3119 61.5387 96.089C72.2364 91.2968 89.107 84.3315 100.782 79.8457C101.285 79.6507 101.844 79.9015 102.039 80.403C102.235 80.9045 101.983 81.4617 101.481 81.6567C89.8332 86.1146 72.9906 93.08 62.3208 97.8443C62.1811 97.9279 62.0694 97.9558 61.9298 97.9558Z" fill="#202D37"/>
<path d="M232.282 123.505C228.288 123.505 224.573 121.945 221.808 119.103C218.959 116.177 217.478 112.277 217.618 108.125C217.869 99.6555 224.88 92.7737 233.203 92.7737C237.198 92.7737 240.913 94.3339 243.678 97.1758C246.527 100.101 248.007 104.002 247.867 108.153C247.588 116.623 240.605 123.505 232.282 123.505ZM233.176 94.724C225.885 94.724 219.769 100.77 219.545 108.181C219.433 111.803 220.718 115.202 223.204 117.738C225.606 120.189 228.818 121.555 232.282 121.555C239.572 121.555 245.689 115.509 245.912 108.098C246.024 104.476 244.739 101.076 242.253 98.541C239.851 96.0892 236.639 94.724 233.176 94.724Z" fill="#202D37"/>
<path d="M252.281 118.992C250.969 118.992 249.656 118.797 248.371 118.434C244.489 117.32 241.109 114.534 239.126 110.8C235.132 103.333 237.562 94.0277 244.517 90.0714C247.757 88.2325 251.555 87.7867 255.186 88.8455C259.069 89.9599 262.449 92.7461 264.432 96.4795C268.426 103.946 265.996 113.252 259.041 117.209C256.946 118.379 254.628 118.992 252.281 118.992ZM240.858 109.881C242.617 113.196 245.494 115.565 248.93 116.568C252.058 117.459 255.298 117.097 258.091 115.509C264.124 112.082 266.219 103.946 262.728 97.399C260.968 94.0834 258.091 91.7152 254.656 90.7122C251.527 89.8206 248.287 90.1828 245.494 91.7709C239.433 95.1979 237.366 103.333 240.858 109.881Z" fill="#202D37"/>
<path d="M210.747 83.9697C210.356 83.9697 209.965 83.719 209.825 83.3289C209.658 82.8274 209.909 82.2702 210.44 82.0751C213.345 81.0721 216.026 80.097 218.652 79.1775C226.919 76.2521 233.427 73.9396 237.952 72.9087C238.483 72.7972 239.014 73.1316 239.125 73.6331C239.237 74.1624 238.902 74.6918 238.399 74.8033C234.014 75.8063 227.534 78.0909 219.322 80.9885C216.697 81.908 214.015 82.8831 211.11 83.8861C210.943 83.9419 210.831 83.9697 210.747 83.9697Z" fill="#202D37"/>
<path d="M171.308 100.101C170.917 100.101 170.554 99.8785 170.414 99.4884C170.219 98.9869 170.442 98.4296 170.945 98.2068C173.738 97.0366 177.09 95.6156 180.637 94.1111C185.162 92.1887 190.301 89.9876 195.273 87.9259C195.776 87.7308 196.334 87.9537 196.558 88.4552C196.753 88.9567 196.53 89.514 196.027 89.7369C191.055 91.7986 185.916 93.9718 181.419 95.9221C177.872 97.4545 174.52 98.8754 171.727 100.046C171.559 100.073 171.42 100.101 171.308 100.101Z" fill="#202D37"/>
<path d="M127.401 116.122C126.954 116.122 126.563 115.844 126.451 115.398C126.311 114.868 126.619 114.339 127.149 114.2C134.579 112.249 146.087 108.014 154.41 104.81C154.913 104.615 155.472 104.866 155.667 105.368C155.863 105.869 155.611 106.426 155.109 106.621C146.729 109.853 135.166 114.116 127.652 116.066C127.568 116.122 127.485 116.122 127.401 116.122Z" fill="#202D37"/>
<path d="M87.235 131.446C86.8999 131.446 86.5647 131.279 86.3692 130.944C86.1178 130.471 86.2854 129.886 86.7323 129.607C94.6089 125.177 104.329 121.137 115.585 117.543C116.088 117.376 116.647 117.654 116.814 118.184C116.982 118.685 116.703 119.243 116.172 119.41C105.027 122.976 95.4468 126.988 87.6819 131.334C87.5423 131.418 87.3747 131.446 87.235 131.446Z" fill="#202D37"/>
<path d="M94.7205 149.89C94.3574 149.89 94.0222 149.695 93.8546 149.36C93.6032 148.887 93.7708 148.302 94.2736 148.051C100.782 144.596 109.999 141.364 118.909 138.216C127.344 135.235 135.333 132.421 140.612 129.634C141.087 129.384 141.673 129.551 141.925 130.024C142.176 130.498 142.008 131.083 141.533 131.334C136.115 134.204 128.071 137.046 119.551 140.055C110.697 143.175 101.564 146.407 95.1674 149.778C95.0557 149.834 94.8881 149.89 94.7205 149.89Z" fill="#202D37"/>
<path d="M47.0702 112.64C46.6791 112.64 46.316 112.417 46.1764 112.027C44.0536 106.956 42.1263 102.582 40.4225 98.7366C34.9759 86.4218 31.9593 79.6236 34.0821 74.4413C35.8976 70.0392 41.3443 67.1695 50.1426 63.7147C69.2198 56.2199 144.662 30.6987 189.744 15.4585C201.782 11.3907 211.307 8.15874 216.977 6.20843C218.904 5.53975 220.664 4.9268 222.368 4.3417C232.73 0.719703 238.428 -1.25846 242.841 0.886874C247.198 3.00435 249.852 8.96673 254.125 21.5601C261.36 42.8742 265.968 52.3193 266.834 53.991C267.086 54.4646 266.89 55.0497 266.415 55.3005C265.94 55.5512 265.354 55.3562 265.103 54.8825C264.237 53.183 259.572 43.6543 252.282 22.201C248.288 10.3877 245.718 4.48101 242.003 2.67001C238.316 0.886873 232.87 2.78146 223.01 6.20843C221.306 6.79352 219.546 7.43433 217.591 8.07515C211.893 10.0255 202.397 13.2295 190.33 17.3252C145.277 32.5654 69.8622 58.0866 50.8409 65.5535C41.2884 69.3148 37.2104 71.9338 35.8697 75.2215C34.0542 79.6515 36.9311 86.1432 42.1822 97.9844C43.886 101.857 45.8412 106.231 47.964 111.302C48.1595 111.804 47.9361 112.361 47.4333 112.584C47.3216 112.612 47.2098 112.64 47.0702 112.64Z" fill="#202D37"/>
<path d="M262.645 68.562C262.617 68.562 262.617 68.562 262.589 68.562C261.723 68.5063 260.047 67.8655 259.768 65.8316C259.516 63.937 259.712 59.0612 261.89 56.1079C263.929 53.3496 270.046 51.9565 272.895 51.9565C272.923 51.9565 272.923 51.9565 272.951 51.9565C276.415 51.9565 278.007 52.9596 280.018 58.5319C280.213 59.0334 279.934 59.5906 279.431 59.7856C278.929 59.9807 278.37 59.7021 278.174 59.2006C276.275 53.9069 275.214 53.9069 272.923 53.9069C270.13 53.9069 264.907 55.3278 263.483 57.2781C261.779 59.5906 261.499 63.8256 261.723 65.5809C261.835 66.4724 262.533 66.6117 262.728 66.6117C263.259 66.6396 263.678 67.1132 263.65 67.6426C263.594 68.1441 263.147 68.562 262.645 68.562Z" fill="#202D37"/>
<path d="M87.5702 195.583C86.3133 195.583 85.2799 195.388 84.3581 195.053C81.5091 193.939 80.5315 191.264 79.5818 188.673C79.2467 187.754 78.8836 186.806 78.4646 185.887C75.867 180.482 73.0738 172.876 68.8283 161.369C67.3479 157.357 65.672 152.815 63.7727 147.8C63.5772 147.299 63.8285 146.741 64.3592 146.546C64.862 146.351 65.4206 146.602 65.6162 147.131C67.4876 152.147 69.1914 156.688 70.6717 160.7C74.9173 172.151 77.7104 179.702 80.2522 185.051C80.727 186.054 81.0901 187.029 81.4532 188.004C82.375 190.484 83.1012 192.462 85.1123 193.242C88.7713 194.691 96.7038 192.267 110.083 185.636C118.546 181.429 134.495 175.021 157.455 166.551C164.745 163.848 172.817 160.951 181.475 157.858C222.311 143.342 265.633 129.049 273.761 126.876C279.152 125.427 281.749 124.062 282.699 122.112C284.179 119.103 282.028 113.948 278.118 104.587C277.727 103.64 277.308 102.637 276.861 101.606C276.666 101.104 276.889 100.547 277.392 100.324C277.895 100.129 278.453 100.352 278.677 100.853C279.124 101.884 279.515 102.887 279.934 103.835C284.067 113.698 286.358 119.131 284.486 122.948C283.229 125.483 280.38 127.099 274.291 128.715C266.163 130.888 222.954 145.125 182.146 159.641C173.515 162.706 165.443 165.632 158.153 168.334C135.277 176.776 119.412 183.184 110.977 187.364C99.6086 192.964 92.2627 195.583 87.5702 195.583Z" fill="#202D37"/>
</g>
<defs>
<filter id="filter0_d_401_2276" x="0" y="0" width="358.442" height="332.359" filterUnits="userSpaceOnUse" color-interpolation-filters="sRGB">
<feFlood flood-opacity="0" result="BackgroundImageFix"/>
<feColorMatrix in="SourceAlpha" type="matrix" values="0 0 0 0 0 0 0 0 0 0 0 0 0 0 0 0 0 0 127 0" result="hardAlpha"/>
<feOffset dy="4"/>
<feGaussianBlur stdDeviation="2"/>
<feComposite in2="hardAlpha" operator="out"/>
<feColorMatrix type="matrix" values="0 0 0 0 0 0 0 0 0 0 0 0 0 0 0 0 0 0 0.25 0"/>
<feBlend mode="normal" in2="BackgroundImageFix" result="effect1_dropShadow_401_2276"/>
<feBlend mode="normal" in="SourceGraphic" in2="effect1_dropShadow_401_2276" result="shape"/>
</filter>
</defs>
</svg>
